<svg xmlns="http://www.w3.org/2000/svg" width="960" height="580" viewBox="0 0 960 580">
<rect width="100%" height="100%" fill="#ffffff"/>
<text x="82" y="28" font-family="Arial, sans-serif" font-size="18" font-weight="700">Chapter 7 derivative size: deferred strong DAG</text>
<text x="82" y="48" font-family="Arial, sans-serif" font-size="12" fill="#555">x: input length n, lines: Chapter 7 evil family parameter k, y: value</text>
<rect x="82" y="54" width="688" height="450" fill="#fbfbfb" stroke="#222" stroke-width="1"/>
<line x1="-16.29" y1="54" x2="-16.29" y2="504" stroke="#e5e5e5" stroke-width="1"/>
<text x="-16.29" y="528" text-anchor="middle" font-family="Arial, sans-serif" font-size="11">0</text>
<line x1="229.43" y1="54" x2="229.43" y2="504" stroke="#e5e5e5" stroke-width="1"/>
<text x="229.43" y="528" text-anchor="middle" font-family="Arial, sans-serif" font-size="11">10</text>
<line x1="475.14" y1="54" x2="475.14" y2="504" stroke="#e5e5e5" stroke-width="1"/>
<text x="475.14" y="528" text-anchor="middle" font-family="Arial, sans-serif" font-size="11">20</text>
<line x1="720.86" y1="54" x2="720.86" y2="504" stroke="#e5e5e5" stroke-width="1"/>
<text x="720.86" y="528" text-anchor="middle" font-family="Arial, sans-serif" font-size="11">30</text>
<line x1="82" y1="504.00" x2="770" y2="504.00" stroke="#e5e5e5" stroke-width="1"/>
<text x="72" y="508.00" text-anchor="end" font-family="Arial, sans-serif" font-size="11">0</text>
<line x1="82" y1="339.77" x2="770" y2="339.77" stroke="#e5e5e5" stroke-width="1"/>
<text x="72" y="343.77" text-anchor="end" font-family="Arial, sans-serif" font-size="11">50</text>
<line x1="82" y1="175.53" x2="770" y2="175.53" stroke="#e5e5e5" stroke-width="1"/>
<text x="72" y="179.53" text-anchor="end" font-family="Arial, sans-serif" font-size="11">100</text>
<line x1="82" y1="11.30" x2="770" y2="11.30" stroke="#e5e5e5" stroke-width="1"/>
<text x="72" y="15.30" text-anchor="end" font-family="Arial, sans-serif" font-size="11">150</text>
<text x="426.00" y="560" text-anchor="middle" font-family="Arial, sans-serif" font-size="13">n</text>
<text x="18" y="279.00" transform="rotate(-90 18,279.00)" text-anchor="middle" font-family="Arial, sans-serif" font-size="13">size</text>
<path d="M82.00,343.05 L180.29,297.07 L278.57,293.78 L376.86,267.50 L475.14,287.21 L573.43,280.64 L671.71,260.93 L770.00,277.36" fill="none" stroke="#1f77b4" stroke-width="2.2"/>
<circle cx="82.00" cy="343.05" r="2.6" fill="#1f77b4"/>
<circle cx="180.29" cy="297.07" r="2.6" fill="#1f77b4"/>
<circle cx="278.57" cy="293.78" r="2.6" fill="#1f77b4"/>
<circle cx="376.86" cy="267.50" r="2.6" fill="#1f77b4"/>
<circle cx="475.14" cy="287.21" r="2.6" fill="#1f77b4"/>
<circle cx="573.43" cy="280.64" r="2.6" fill="#1f77b4"/>
<circle cx="671.71" cy="260.93" r="2.6" fill="#1f77b4"/>
<circle cx="770.00" cy="277.36" r="2.6" fill="#1f77b4"/>
<path d="M82.00,224.80 L180.29,149.26 L278.57,136.12 L376.86,54.00 L475.14,119.69 L573.43,96.70 L671.71,109.84 L770.00,80.28" fill="none" stroke="#d62728" stroke-width="2.2"/>
<circle cx="82.00" cy="224.80" r="2.6" fill="#d62728"/>
<circle cx="180.29" cy="149.26" r="2.6" fill="#d62728"/>
<circle cx="278.57" cy="136.12" r="2.6" fill="#d62728"/>
<circle cx="376.86" cy="54.00" r="2.6" fill="#d62728"/>
<circle cx="475.14" cy="119.69" r="2.6" fill="#d62728"/>
<circle cx="573.43" cy="96.70" r="2.6" fill="#d62728"/>
<circle cx="671.71" cy="109.84" r="2.6" fill="#d62728"/>
<circle cx="770.00" cy="80.28" r="2.6" fill="#d62728"/>
<text x="794" y="62" font-family="Arial, sans-serif" font-size="13" font-weight="700">k</text>
<line x1="794" y1="80" x2="820" y2="80" stroke="#1f77b4" stroke-width="2.2"/>
<text x="828" y="84" font-family="Arial, sans-serif" font-size="12">k=5</text>
<line x1="794" y1="102" x2="820" y2="102" stroke="#d62728" stroke-width="2.2"/>
<text x="828" y="106" font-family="Arial, sans-serif" font-size="12">k=8</text>
</svg>