<svg xmlns="http://www.w3.org/2000/svg" width="960" height="580" viewBox="0 0 960 580">
<rect width="100%" height="100%" fill="#ffffff"/>
<text x="82" y="28" font-family="Arial, sans-serif" font-size="18" font-weight="700">Chapter 7 derivative size: current bsimpCubic tree</text>
<text x="82" y="48" font-family="Arial, sans-serif" font-size="12" fill="#555">x: input length n, lines: Chapter 7 evil family parameter k, y: value</text>
<rect x="82" y="54" width="688" height="450" fill="#fbfbfb" stroke="#222" stroke-width="1"/>
<line x1="82.00" y1="54" x2="82.00" y2="504" stroke="#e5e5e5" stroke-width="1"/>
<text x="82.00" y="528" text-anchor="middle" font-family="Arial, sans-serif" font-size="11">0</text>
<line x1="311.33" y1="54" x2="311.33" y2="504" stroke="#e5e5e5" stroke-width="1"/>
<text x="311.33" y="528" text-anchor="middle" font-family="Arial, sans-serif" font-size="11">10</text>
<line x1="540.67" y1="54" x2="540.67" y2="504" stroke="#e5e5e5" stroke-width="1"/>
<text x="540.67" y="528" text-anchor="middle" font-family="Arial, sans-serif" font-size="11">20</text>
<line x1="770.00" y1="54" x2="770.00" y2="504" stroke="#e5e5e5" stroke-width="1"/>
<text x="770.00" y="528" text-anchor="middle" font-family="Arial, sans-serif" font-size="11">30</text>
<line x1="82" y1="504.00" x2="770" y2="504.00" stroke="#e5e5e5" stroke-width="1"/>
<text x="72" y="508.00" text-anchor="end" font-family="Arial, sans-serif" font-size="11">0</text>
<line x1="82" y1="385.38" x2="770" y2="385.38" stroke="#e5e5e5" stroke-width="1"/>
<text x="72" y="389.38" text-anchor="end" font-family="Arial, sans-serif" font-size="11">2000</text>
<line x1="82" y1="266.75" x2="770" y2="266.75" stroke="#e5e5e5" stroke-width="1"/>
<text x="72" y="270.75" text-anchor="end" font-family="Arial, sans-serif" font-size="11">4000</text>
<line x1="82" y1="148.13" x2="770" y2="148.13" stroke="#e5e5e5" stroke-width="1"/>
<text x="72" y="152.13" text-anchor="end" font-family="Arial, sans-serif" font-size="11">6000</text>
<line x1="82" y1="29.50" x2="770" y2="29.50" stroke="#e5e5e5" stroke-width="1"/>
<text x="72" y="33.50" text-anchor="end" font-family="Arial, sans-serif" font-size="11">8000</text>
<text x="426.00" y="560" text-anchor="middle" font-family="Arial, sans-serif" font-size="13">n</text>
<text x="18" y="279.00" transform="rotate(-90 18,279.00)" text-anchor="middle" font-family="Arial, sans-serif" font-size="13">size</text>
<path d="M82.00,503.64 L104.93,503.35 L127.87,503.35 L150.80,503.35 L173.73,503.35 L196.67,503.35 L219.60,503.35 L242.53,503.35 L265.47,503.35 L288.40,503.35 L311.33,503.35 L334.27,503.35 L357.20,503.35 L380.13,503.35 L403.07,503.35 L426.00,503.35 L448.93,503.35 L471.87,503.35 L494.80,503.35 L517.73,503.35 L540.67,503.35 L563.60,503.35 L586.53,503.35 L609.47,503.35 L632.40,503.35 L655.33,503.35 L678.27,503.35 L701.20,503.35 L724.13,503.35 L747.07,503.35 L770.00,503.35" fill="none" stroke="#1f77b4" stroke-width="2.2"/>
<circle cx="82.00" cy="503.64" r="2.6" fill="#1f77b4"/>
<circle cx="104.93" cy="503.35" r="2.6" fill="#1f77b4"/>
<circle cx="127.87" cy="503.35" r="2.6" fill="#1f77b4"/>
<circle cx="150.80" cy="503.35" r="2.6" fill="#1f77b4"/>
<circle cx="173.73" cy="503.35" r="2.6" fill="#1f77b4"/>
<circle cx="196.67" cy="503.35" r="2.6" fill="#1f77b4"/>
<circle cx="219.60" cy="503.35" r="2.6" fill="#1f77b4"/>
<circle cx="242.53" cy="503.35" r="2.6" fill="#1f77b4"/>
<circle cx="265.47" cy="503.35" r="2.6" fill="#1f77b4"/>
<circle cx="288.40" cy="503.35" r="2.6" fill="#1f77b4"/>
<circle cx="311.33" cy="503.35" r="2.6" fill="#1f77b4"/>
<circle cx="334.27" cy="503.35" r="2.6" fill="#1f77b4"/>
<circle cx="357.20" cy="503.35" r="2.6" fill="#1f77b4"/>
<circle cx="380.13" cy="503.35" r="2.6" fill="#1f77b4"/>
<circle cx="403.07" cy="503.35" r="2.6" fill="#1f77b4"/>
<circle cx="426.00" cy="503.35" r="2.6" fill="#1f77b4"/>
<circle cx="448.93" cy="503.35" r="2.6" fill="#1f77b4"/>
<circle cx="471.87" cy="503.35" r="2.6" fill="#1f77b4"/>
<circle cx="494.80" cy="503.35" r="2.6" fill="#1f77b4"/>
<circle cx="517.73" cy="503.35" r="2.6" fill="#1f77b4"/>
<circle cx="540.67" cy="503.35" r="2.6" fill="#1f77b4"/>
<circle cx="563.60" cy="503.35" r="2.6" fill="#1f77b4"/>
<circle cx="586.53" cy="503.35" r="2.6" fill="#1f77b4"/>
<circle cx="609.47" cy="503.35" r="2.6" fill="#1f77b4"/>
<circle cx="632.40" cy="503.35" r="2.6" fill="#1f77b4"/>
<circle cx="655.33" cy="503.35" r="2.6" fill="#1f77b4"/>
<circle cx="678.27" cy="503.35" r="2.6" fill="#1f77b4"/>
<circle cx="701.20" cy="503.35" r="2.6" fill="#1f77b4"/>
<circle cx="724.13" cy="503.35" r="2.6" fill="#1f77b4"/>
<circle cx="747.07" cy="503.35" r="2.6" fill="#1f77b4"/>
<circle cx="770.00" cy="503.35" r="2.6" fill="#1f77b4"/>
<path d="M82.00,503.23 L104.93,502.34 L127.87,500.74 L150.80,500.74 L173.73,500.74 L196.67,500.74 L219.60,500.74 L242.53,500.74 L265.47,500.74 L288.40,500.74 L311.33,500.74 L334.27,500.74 L357.20,500.74 L380.13,500.74 L403.07,500.74 L426.00,500.74 L448.93,500.74 L471.87,500.74 L494.80,500.74 L517.73,500.74 L540.67,500.74 L563.60,500.74 L586.53,500.74 L609.47,500.74 L632.40,500.74 L655.33,500.74 L678.27,500.74 L701.20,500.74 L724.13,500.74 L747.07,500.74 L770.00,500.74" fill="none" stroke="#d62728" stroke-width="2.2"/>
<circle cx="82.00" cy="503.23" r="2.6" fill="#d62728"/>
<circle cx="104.93" cy="502.34" r="2.6" fill="#d62728"/>
<circle cx="127.87" cy="500.74" r="2.6" fill="#d62728"/>
<circle cx="150.80" cy="500.74" r="2.6" fill="#d62728"/>
<circle cx="173.73" cy="500.74" r="2.6" fill="#d62728"/>
<circle cx="196.67" cy="500.74" r="2.6" fill="#d62728"/>
<circle cx="219.60" cy="500.74" r="2.6" fill="#d62728"/>
<circle cx="242.53" cy="500.74" r="2.6" fill="#d62728"/>
<circle cx="265.47" cy="500.74" r="2.6" fill="#d62728"/>
<circle cx="288.40" cy="500.74" r="2.6" fill="#d62728"/>
<circle cx="311.33" cy="500.74" r="2.6" fill="#d62728"/>
<circle cx="334.27" cy="500.74" r="2.6" fill="#d62728"/>
<circle cx="357.20" cy="500.74" r="2.6" fill="#d62728"/>
<circle cx="380.13" cy="500.74" r="2.6" fill="#d62728"/>
<circle cx="403.07" cy="500.74" r="2.6" fill="#d62728"/>
<circle cx="426.00" cy="500.74" r="2.6" fill="#d62728"/>
<circle cx="448.93" cy="500.74" r="2.6" fill="#d62728"/>
<circle cx="471.87" cy="500.74" r="2.6" fill="#d62728"/>
<circle cx="494.80" cy="500.74" r="2.6" fill="#d62728"/>
<circle cx="517.73" cy="500.74" r="2.6" fill="#d62728"/>
<circle cx="540.67" cy="500.74" r="2.6" fill="#d62728"/>
<circle cx="563.60" cy="500.74" r="2.6" fill="#d62728"/>
<circle cx="586.53" cy="500.74" r="2.6" fill="#d62728"/>
<circle cx="609.47" cy="500.74" r="2.6" fill="#d62728"/>
<circle cx="632.40" cy="500.74" r="2.6" fill="#d62728"/>
<circle cx="655.33" cy="500.74" r="2.6" fill="#d62728"/>
<circle cx="678.27" cy="500.74" r="2.6" fill="#d62728"/>
<circle cx="701.20" cy="500.74" r="2.6" fill="#d62728"/>
<circle cx="724.13" cy="500.74" r="2.6" fill="#d62728"/>
<circle cx="747.07" cy="500.74" r="2.6" fill="#d62728"/>
<circle cx="770.00" cy="500.74" r="2.6" fill="#d62728"/>
<path d="M82.00,502.70 L104.93,501.03 L127.87,498.25 L150.80,495.52 L173.73,492.67 L196.67,489.82 L219.60,487.21 L242.53,487.21 L265.47,487.21 L288.40,487.21 L311.33,487.21 L334.27,487.21 L357.20,487.21 L380.13,487.21 L403.07,487.21 L426.00,487.21 L448.93,487.21 L471.87,487.21 L494.80,487.21 L517.73,487.21 L540.67,487.21 L563.60,487.21 L586.53,487.21 L609.47,487.21 L632.40,487.21 L655.33,487.21 L678.27,487.21 L701.20,487.21 L724.13,487.21 L747.07,487.21 L770.00,487.21" fill="none" stroke="#2ca02c" stroke-width="2.2"/>
<circle cx="82.00" cy="502.70" r="2.6" fill="#2ca02c"/>
<circle cx="104.93" cy="501.03" r="2.6" fill="#2ca02c"/>
<circle cx="127.87" cy="498.25" r="2.6" fill="#2ca02c"/>
<circle cx="150.80" cy="495.52" r="2.6" fill="#2ca02c"/>
<circle cx="173.73" cy="492.67" r="2.6" fill="#2ca02c"/>
<circle cx="196.67" cy="489.82" r="2.6" fill="#2ca02c"/>
<circle cx="219.60" cy="487.21" r="2.6" fill="#2ca02c"/>
<circle cx="242.53" cy="487.21" r="2.6" fill="#2ca02c"/>
<circle cx="265.47" cy="487.21" r="2.6" fill="#2ca02c"/>
<circle cx="288.40" cy="487.21" r="2.6" fill="#2ca02c"/>
<circle cx="311.33" cy="487.21" r="2.6" fill="#2ca02c"/>
<circle cx="334.27" cy="487.21" r="2.6" fill="#2ca02c"/>
<circle cx="357.20" cy="487.21" r="2.6" fill="#2ca02c"/>
<circle cx="380.13" cy="487.21" r="2.6" fill="#2ca02c"/>
<circle cx="403.07" cy="487.21" r="2.6" fill="#2ca02c"/>
<circle cx="426.00" cy="487.21" r="2.6" fill="#2ca02c"/>
<circle cx="448.93" cy="487.21" r="2.6" fill="#2ca02c"/>
<circle cx="471.87" cy="487.21" r="2.6" fill="#2ca02c"/>
<circle cx="494.80" cy="487.21" r="2.6" fill="#2ca02c"/>
<circle cx="517.73" cy="487.21" r="2.6" fill="#2ca02c"/>
<circle cx="540.67" cy="487.21" r="2.6" fill="#2ca02c"/>
<circle cx="563.60" cy="487.21" r="2.6" fill="#2ca02c"/>
<circle cx="586.53" cy="487.21" r="2.6" fill="#2ca02c"/>
<circle cx="609.47" cy="487.21" r="2.6" fill="#2ca02c"/>
<circle cx="632.40" cy="487.21" r="2.6" fill="#2ca02c"/>
<circle cx="655.33" cy="487.21" r="2.6" fill="#2ca02c"/>
<circle cx="678.27" cy="487.21" r="2.6" fill="#2ca02c"/>
<circle cx="701.20" cy="487.21" r="2.6" fill="#2ca02c"/>
<circle cx="724.13" cy="487.21" r="2.6" fill="#2ca02c"/>
<circle cx="747.07" cy="487.21" r="2.6" fill="#2ca02c"/>
<circle cx="770.00" cy="487.21" r="2.6" fill="#2ca02c"/>
<path d="M82.00,502.04 L104.93,499.26 L127.87,494.81 L150.80,490.54 L173.73,486.27 L196.67,481.64 L219.60,477.37 L242.53,472.86 L265.47,468.71 L288.40,464.20 L311.33,459.69 L334.27,455.30 L357.20,451.27 L380.13,451.27 L403.07,451.27 L426.00,451.27 L448.93,451.27 L471.87,451.27 L494.80,451.27 L517.73,451.27 L540.67,451.27 L563.60,451.27 L586.53,451.27 L609.47,451.27 L632.40,451.27 L655.33,451.27 L678.27,451.27 L701.20,451.27 L724.13,451.27 L747.07,451.27 L770.00,451.27" fill="none" stroke="#9467bd" stroke-width="2.2"/>
<circle cx="82.00" cy="502.04" r="2.6" fill="#9467bd"/>
<circle cx="104.93" cy="499.26" r="2.6" fill="#9467bd"/>
<circle cx="127.87" cy="494.81" r="2.6" fill="#9467bd"/>
<circle cx="150.80" cy="490.54" r="2.6" fill="#9467bd"/>
<circle cx="173.73" cy="486.27" r="2.6" fill="#9467bd"/>
<circle cx="196.67" cy="481.64" r="2.6" fill="#9467bd"/>
<circle cx="219.60" cy="477.37" r="2.6" fill="#9467bd"/>
<circle cx="242.53" cy="472.86" r="2.6" fill="#9467bd"/>
<circle cx="265.47" cy="468.71" r="2.6" fill="#9467bd"/>
<circle cx="288.40" cy="464.20" r="2.6" fill="#9467bd"/>
<circle cx="311.33" cy="459.69" r="2.6" fill="#9467bd"/>
<circle cx="334.27" cy="455.30" r="2.6" fill="#9467bd"/>
<circle cx="357.20" cy="451.27" r="2.6" fill="#9467bd"/>
<circle cx="380.13" cy="451.27" r="2.6" fill="#9467bd"/>
<circle cx="403.07" cy="451.27" r="2.6" fill="#9467bd"/>
<circle cx="426.00" cy="451.27" r="2.6" fill="#9467bd"/>
<circle cx="448.93" cy="451.27" r="2.6" fill="#9467bd"/>
<circle cx="471.87" cy="451.27" r="2.6" fill="#9467bd"/>
<circle cx="494.80" cy="451.27" r="2.6" fill="#9467bd"/>
<circle cx="517.73" cy="451.27" r="2.6" fill="#9467bd"/>
<circle cx="540.67" cy="451.27" r="2.6" fill="#9467bd"/>
<circle cx="563.60" cy="451.27" r="2.6" fill="#9467bd"/>
<circle cx="586.53" cy="451.27" r="2.6" fill="#9467bd"/>
<circle cx="609.47" cy="451.27" r="2.6" fill="#9467bd"/>
<circle cx="632.40" cy="451.27" r="2.6" fill="#9467bd"/>
<circle cx="655.33" cy="451.27" r="2.6" fill="#9467bd"/>
<circle cx="678.27" cy="451.27" r="2.6" fill="#9467bd"/>
<circle cx="701.20" cy="451.27" r="2.6" fill="#9467bd"/>
<circle cx="724.13" cy="451.27" r="2.6" fill="#9467bd"/>
<circle cx="747.07" cy="451.27" r="2.6" fill="#9467bd"/>
<circle cx="770.00" cy="451.27" r="2.6" fill="#9467bd"/>
<path d="M82.00,501.27 L104.93,497.00 L127.87,490.42 L150.80,484.13 L173.73,477.96 L196.67,471.56 L219.60,465.03 L242.53,458.39 L265.47,452.22 L288.40,445.81 L311.33,439.53 L334.27,432.88 L357.20,426.72 L380.13,419.95 L403.07,413.67 L426.00,407.62 L448.93,401.09 L471.87,394.33 L494.80,388.05 L517.73,381.64 L540.67,375.71 L563.60,368.95 L586.53,362.30 L609.47,355.90 L632.40,349.97 L655.33,343.44 L678.27,336.80 L701.20,330.39 L724.13,324.11 L747.07,317.58 L770.00,311.53" fill="none" stroke="#ff7f0e" stroke-width="2.2"/>
<circle cx="82.00" cy="501.27" r="2.6" fill="#ff7f0e"/>
<circle cx="104.93" cy="497.00" r="2.6" fill="#ff7f0e"/>
<circle cx="127.87" cy="490.42" r="2.6" fill="#ff7f0e"/>
<circle cx="150.80" cy="484.13" r="2.6" fill="#ff7f0e"/>
<circle cx="173.73" cy="477.96" r="2.6" fill="#ff7f0e"/>
<circle cx="196.67" cy="471.56" r="2.6" fill="#ff7f0e"/>
<circle cx="219.60" cy="465.03" r="2.6" fill="#ff7f0e"/>
<circle cx="242.53" cy="458.39" r="2.6" fill="#ff7f0e"/>
<circle cx="265.47" cy="452.22" r="2.6" fill="#ff7f0e"/>
<circle cx="288.40" cy="445.81" r="2.6" fill="#ff7f0e"/>
<circle cx="311.33" cy="439.53" r="2.6" fill="#ff7f0e"/>
<circle cx="334.27" cy="432.88" r="2.6" fill="#ff7f0e"/>
<circle cx="357.20" cy="426.72" r="2.6" fill="#ff7f0e"/>
<circle cx="380.13" cy="419.95" r="2.6" fill="#ff7f0e"/>
<circle cx="403.07" cy="413.67" r="2.6" fill="#ff7f0e"/>
<circle cx="426.00" cy="407.62" r="2.6" fill="#ff7f0e"/>
<circle cx="448.93" cy="401.09" r="2.6" fill="#ff7f0e"/>
<circle cx="471.87" cy="394.33" r="2.6" fill="#ff7f0e"/>
<circle cx="494.80" cy="388.05" r="2.6" fill="#ff7f0e"/>
<circle cx="517.73" cy="381.64" r="2.6" fill="#ff7f0e"/>
<circle cx="540.67" cy="375.71" r="2.6" fill="#ff7f0e"/>
<circle cx="563.60" cy="368.95" r="2.6" fill="#ff7f0e"/>
<circle cx="586.53" cy="362.30" r="2.6" fill="#ff7f0e"/>
<circle cx="609.47" cy="355.90" r="2.6" fill="#ff7f0e"/>
<circle cx="632.40" cy="349.97" r="2.6" fill="#ff7f0e"/>
<circle cx="655.33" cy="343.44" r="2.6" fill="#ff7f0e"/>
<circle cx="678.27" cy="336.80" r="2.6" fill="#ff7f0e"/>
<circle cx="701.20" cy="330.39" r="2.6" fill="#ff7f0e"/>
<circle cx="724.13" cy="324.11" r="2.6" fill="#ff7f0e"/>
<circle cx="747.07" cy="317.58" r="2.6" fill="#ff7f0e"/>
<circle cx="770.00" cy="311.53" r="2.6" fill="#ff7f0e"/>
<path d="M82.00,500.38 L104.93,494.27 L127.87,485.08 L150.80,476.30 L173.73,467.76 L196.67,459.10 L219.60,450.44 L242.53,441.07 L265.47,432.29 L288.40,423.40 L311.33,414.74 L334.27,405.84 L357.20,397.53 L380.13,388.05 L403.07,379.15 L426.00,370.61 L448.93,361.71 L471.87,352.70 L494.80,344.27 L517.73,335.14 L540.67,326.60 L563.60,317.35 L586.53,308.33 L609.47,299.67 L632.40,291.60 L655.33,282.35 L678.27,273.10 L701.20,264.20 L724.13,255.54 L747.07,246.76 L770.00,238.58" fill="none" stroke="#17becf" stroke-width="2.2"/>
<circle cx="82.00" cy="500.38" r="2.6" fill="#17becf"/>
<circle cx="104.93" cy="494.27" r="2.6" fill="#17becf"/>
<circle cx="127.87" cy="485.08" r="2.6" fill="#17becf"/>
<circle cx="150.80" cy="476.30" r="2.6" fill="#17becf"/>
<circle cx="173.73" cy="467.76" r="2.6" fill="#17becf"/>
<circle cx="196.67" cy="459.10" r="2.6" fill="#17becf"/>
<circle cx="219.60" cy="450.44" r="2.6" fill="#17becf"/>
<circle cx="242.53" cy="441.07" r="2.6" fill="#17becf"/>
<circle cx="265.47" cy="432.29" r="2.6" fill="#17becf"/>
<circle cx="288.40" cy="423.40" r="2.6" fill="#17becf"/>
<circle cx="311.33" cy="414.74" r="2.6" fill="#17becf"/>
<circle cx="334.27" cy="405.84" r="2.6" fill="#17becf"/>
<circle cx="357.20" cy="397.53" r="2.6" fill="#17becf"/>
<circle cx="380.13" cy="388.05" r="2.6" fill="#17becf"/>
<circle cx="403.07" cy="379.15" r="2.6" fill="#17becf"/>
<circle cx="426.00" cy="370.61" r="2.6" fill="#17becf"/>
<circle cx="448.93" cy="361.71" r="2.6" fill="#17becf"/>
<circle cx="471.87" cy="352.70" r="2.6" fill="#17becf"/>
<circle cx="494.80" cy="344.27" r="2.6" fill="#17becf"/>
<circle cx="517.73" cy="335.14" r="2.6" fill="#17becf"/>
<circle cx="540.67" cy="326.60" r="2.6" fill="#17becf"/>
<circle cx="563.60" cy="317.35" r="2.6" fill="#17becf"/>
<circle cx="586.53" cy="308.33" r="2.6" fill="#17becf"/>
<circle cx="609.47" cy="299.67" r="2.6" fill="#17becf"/>
<circle cx="632.40" cy="291.60" r="2.6" fill="#17becf"/>
<circle cx="655.33" cy="282.35" r="2.6" fill="#17becf"/>
<circle cx="678.27" cy="273.10" r="2.6" fill="#17becf"/>
<circle cx="701.20" cy="264.20" r="2.6" fill="#17becf"/>
<circle cx="724.13" cy="255.54" r="2.6" fill="#17becf"/>
<circle cx="747.07" cy="246.76" r="2.6" fill="#17becf"/>
<circle cx="770.00" cy="238.58" r="2.6" fill="#17becf"/>
<path d="M82.00,499.37 L104.93,491.07 L127.87,478.79 L150.80,467.05 L173.73,455.66 L196.67,444.27 L219.60,433.00 L242.53,421.14 L265.47,409.16 L288.40,397.18 L311.33,385.55 L334.27,373.81 L357.20,362.78 L380.13,350.68 L403.07,339.29 L426.00,327.55 L448.93,315.57 L471.87,303.58 L494.80,292.32 L517.73,280.45 L540.67,269.30 L563.60,257.56 L586.53,245.34 L609.47,233.60 L632.40,222.56 L655.33,210.47 L678.27,198.48 L701.20,186.98 L724.13,175.83 L747.07,163.85 L770.00,152.58" fill="none" stroke="#8c564b" stroke-width="2.2"/>
<circle cx="82.00" cy="499.37" r="2.6" fill="#8c564b"/>
<circle cx="104.93" cy="491.07" r="2.6" fill="#8c564b"/>
<circle cx="127.87" cy="478.79" r="2.6" fill="#8c564b"/>
<circle cx="150.80" cy="467.05" r="2.6" fill="#8c564b"/>
<circle cx="173.73" cy="455.66" r="2.6" fill="#8c564b"/>
<circle cx="196.67" cy="444.27" r="2.6" fill="#8c564b"/>
<circle cx="219.60" cy="433.00" r="2.6" fill="#8c564b"/>
<circle cx="242.53" cy="421.14" r="2.6" fill="#8c564b"/>
<circle cx="265.47" cy="409.16" r="2.6" fill="#8c564b"/>
<circle cx="288.40" cy="397.18" r="2.6" fill="#8c564b"/>
<circle cx="311.33" cy="385.55" r="2.6" fill="#8c564b"/>
<circle cx="334.27" cy="373.81" r="2.6" fill="#8c564b"/>
<circle cx="357.20" cy="362.78" r="2.6" fill="#8c564b"/>
<circle cx="380.13" cy="350.68" r="2.6" fill="#8c564b"/>
<circle cx="403.07" cy="339.29" r="2.6" fill="#8c564b"/>
<circle cx="426.00" cy="327.55" r="2.6" fill="#8c564b"/>
<circle cx="448.93" cy="315.57" r="2.6" fill="#8c564b"/>
<circle cx="471.87" cy="303.58" r="2.6" fill="#8c564b"/>
<circle cx="494.80" cy="292.32" r="2.6" fill="#8c564b"/>
<circle cx="517.73" cy="280.45" r="2.6" fill="#8c564b"/>
<circle cx="540.67" cy="269.30" r="2.6" fill="#8c564b"/>
<circle cx="563.60" cy="257.56" r="2.6" fill="#8c564b"/>
<circle cx="586.53" cy="245.34" r="2.6" fill="#8c564b"/>
<circle cx="609.47" cy="233.60" r="2.6" fill="#8c564b"/>
<circle cx="632.40" cy="222.56" r="2.6" fill="#8c564b"/>
<circle cx="655.33" cy="210.47" r="2.6" fill="#8c564b"/>
<circle cx="678.27" cy="198.48" r="2.6" fill="#8c564b"/>
<circle cx="701.20" cy="186.98" r="2.6" fill="#8c564b"/>
<circle cx="724.13" cy="175.83" r="2.6" fill="#8c564b"/>
<circle cx="747.07" cy="163.85" r="2.6" fill="#8c564b"/>
<circle cx="770.00" cy="152.58" r="2.6" fill="#8c564b"/>
<path d="M82.00,498.25 L104.93,487.39 L127.87,471.56 L150.80,456.37 L173.73,441.66 L196.67,427.07 L219.60,412.72 L242.53,397.89 L265.47,383.06 L288.40,367.40 L311.33,352.22 L334.27,337.04 L357.20,322.68 L380.13,307.38 L403.07,292.91 L426.00,278.20 L448.93,263.37 L471.87,247.71 L494.80,232.88 L517.73,217.58 L540.67,203.11 L563.60,188.16 L586.53,172.86 L609.47,158.15 L632.40,144.27 L655.33,128.50 L678.27,112.96 L701.20,98.01 L724.13,83.54 L747.07,68.35 L770.00,54.00" fill="none" stroke="#e377c2" stroke-width="2.2"/>
<circle cx="82.00" cy="498.25" r="2.6" fill="#e377c2"/>
<circle cx="104.93" cy="487.39" r="2.6" fill="#e377c2"/>
<circle cx="127.87" cy="471.56" r="2.6" fill="#e377c2"/>
<circle cx="150.80" cy="456.37" r="2.6" fill="#e377c2"/>
<circle cx="173.73" cy="441.66" r="2.6" fill="#e377c2"/>
<circle cx="196.67" cy="427.07" r="2.6" fill="#e377c2"/>
<circle cx="219.60" cy="412.72" r="2.6" fill="#e377c2"/>
<circle cx="242.53" cy="397.89" r="2.6" fill="#e377c2"/>
<circle cx="265.47" cy="383.06" r="2.6" fill="#e377c2"/>
<circle cx="288.40" cy="367.40" r="2.6" fill="#e377c2"/>
<circle cx="311.33" cy="352.22" r="2.6" fill="#e377c2"/>
<circle cx="334.27" cy="337.04" r="2.6" fill="#e377c2"/>
<circle cx="357.20" cy="322.68" r="2.6" fill="#e377c2"/>
<circle cx="380.13" cy="307.38" r="2.6" fill="#e377c2"/>
<circle cx="403.07" cy="292.91" r="2.6" fill="#e377c2"/>
<circle cx="426.00" cy="278.20" r="2.6" fill="#e377c2"/>
<circle cx="448.93" cy="263.37" r="2.6" fill="#e377c2"/>
<circle cx="471.87" cy="247.71" r="2.6" fill="#e377c2"/>
<circle cx="494.80" cy="232.88" r="2.6" fill="#e377c2"/>
<circle cx="517.73" cy="217.58" r="2.6" fill="#e377c2"/>
<circle cx="540.67" cy="203.11" r="2.6" fill="#e377c2"/>
<circle cx="563.60" cy="188.16" r="2.6" fill="#e377c2"/>
<circle cx="586.53" cy="172.86" r="2.6" fill="#e377c2"/>
<circle cx="609.47" cy="158.15" r="2.6" fill="#e377c2"/>
<circle cx="632.40" cy="144.27" r="2.6" fill="#e377c2"/>
<circle cx="655.33" cy="128.50" r="2.6" fill="#e377c2"/>
<circle cx="678.27" cy="112.96" r="2.6" fill="#e377c2"/>
<circle cx="701.20" cy="98.01" r="2.6" fill="#e377c2"/>
<circle cx="724.13" cy="83.54" r="2.6" fill="#e377c2"/>
<circle cx="747.07" cy="68.35" r="2.6" fill="#e377c2"/>
<circle cx="770.00" cy="54.00" r="2.6" fill="#e377c2"/>
<text x="794" y="62" font-family="Arial, sans-serif" font-size="13" font-weight="700">k</text>
<line x1="794" y1="80" x2="820" y2="80" stroke="#1f77b4" stroke-width="2.2"/>
<text x="828" y="84" font-family="Arial, sans-serif" font-size="12">k=1</text>
<line x1="794" y1="102" x2="820" y2="102" stroke="#d62728" stroke-width="2.2"/>
<text x="828" y="106" font-family="Arial, sans-serif" font-size="12">k=2</text>
<line x1="794" y1="124" x2="820" y2="124" stroke="#2ca02c" stroke-width="2.2"/>
<text x="828" y="128" font-family="Arial, sans-serif" font-size="12">k=3</text>
<line x1="794" y1="146" x2="820" y2="146" stroke="#9467bd" stroke-width="2.2"/>
<text x="828" y="150" font-family="Arial, sans-serif" font-size="12">k=4</text>
<line x1="794" y1="168" x2="820" y2="168" stroke="#ff7f0e" stroke-width="2.2"/>
<text x="828" y="172" font-family="Arial, sans-serif" font-size="12">k=5</text>
<line x1="794" y1="190" x2="820" y2="190" stroke="#17becf" stroke-width="2.2"/>
<text x="828" y="194" font-family="Arial, sans-serif" font-size="12">k=6</text>
<line x1="794" y1="212" x2="820" y2="212" stroke="#8c564b" stroke-width="2.2"/>
<text x="828" y="216" font-family="Arial, sans-serif" font-size="12">k=7</text>
<line x1="794" y1="234" x2="820" y2="234" stroke="#e377c2" stroke-width="2.2"/>
<text x="828" y="238" font-family="Arial, sans-serif" font-size="12">k=8</text>
</svg>