<svg xmlns="http://www.w3.org/2000/svg" width="960" height="580" viewBox="0 0 960 580">
<rect width="100%" height="100%" fill="#ffffff"/>
<text x="82" y="28" font-family="Arial, sans-serif" font-size="18" font-weight="700">Chapter 7 derivative size: shared prefix shape pool</text>
<text x="82" y="48" font-family="Arial, sans-serif" font-size="12" fill="#555">x: input length n, lines: Chapter 7 evil family parameter k, y: value</text>
<rect x="82" y="54" width="688" height="450" fill="#fbfbfb" stroke="#222" stroke-width="1"/>
<line x1="82.00" y1="54" x2="82.00" y2="504" stroke="#e5e5e5" stroke-width="1"/>
<text x="82.00" y="528" text-anchor="middle" font-family="Arial, sans-serif" font-size="11">0</text>
<line x1="311.33" y1="54" x2="311.33" y2="504" stroke="#e5e5e5" stroke-width="1"/>
<text x="311.33" y="528" text-anchor="middle" font-family="Arial, sans-serif" font-size="11">10</text>
<line x1="540.67" y1="54" x2="540.67" y2="504" stroke="#e5e5e5" stroke-width="1"/>
<text x="540.67" y="528" text-anchor="middle" font-family="Arial, sans-serif" font-size="11">20</text>
<line x1="770.00" y1="54" x2="770.00" y2="504" stroke="#e5e5e5" stroke-width="1"/>
<text x="770.00" y="528" text-anchor="middle" font-family="Arial, sans-serif" font-size="11">30</text>
<line x1="82" y1="504.00" x2="770" y2="504.00" stroke="#e5e5e5" stroke-width="1"/>
<text x="72" y="508.00" text-anchor="end" font-family="Arial, sans-serif" font-size="11">0</text>
<line x1="82" y1="386.81" x2="770" y2="386.81" stroke="#e5e5e5" stroke-width="1"/>
<text x="72" y="390.81" text-anchor="end" font-family="Arial, sans-serif" font-size="11">50</text>
<line x1="82" y1="269.62" x2="770" y2="269.62" stroke="#e5e5e5" stroke-width="1"/>
<text x="72" y="273.62" text-anchor="end" font-family="Arial, sans-serif" font-size="11">100</text>
<line x1="82" y1="152.44" x2="770" y2="152.44" stroke="#e5e5e5" stroke-width="1"/>
<text x="72" y="156.44" text-anchor="end" font-family="Arial, sans-serif" font-size="11">150</text>
<line x1="82" y1="35.25" x2="770" y2="35.25" stroke="#e5e5e5" stroke-width="1"/>
<text x="72" y="39.25" text-anchor="end" font-family="Arial, sans-serif" font-size="11">200</text>
<text x="426.00" y="560" text-anchor="middle" font-family="Arial, sans-serif" font-size="13">n</text>
<text x="18" y="279.00" transform="rotate(-90 18,279.00)" text-anchor="middle" font-family="Arial, sans-serif" font-size="13">size</text>
<path d="M82.00,489.94 L104.93,478.22 L127.87,478.22 L150.80,478.22 L173.73,478.22 L196.67,478.22 L219.60,478.22 L242.53,478.22 L265.47,478.22 L288.40,478.22 L311.33,478.22 L334.27,478.22 L357.20,478.22 L380.13,478.22 L403.07,478.22 L426.00,478.22 L448.93,478.22 L471.87,478.22 L494.80,478.22 L517.73,478.22 L540.67,478.22 L563.60,478.22 L586.53,478.22 L609.47,478.22 L632.40,478.22 L655.33,478.22 L678.27,478.22 L701.20,478.22 L724.13,478.22 L747.07,478.22 L770.00,478.22" fill="none" stroke="#1f77b4" stroke-width="2.2"/>
<circle cx="82.00" cy="489.94" r="2.6" fill="#1f77b4"/>
<circle cx="104.93" cy="478.22" r="2.6" fill="#1f77b4"/>
<circle cx="127.87" cy="478.22" r="2.6" fill="#1f77b4"/>
<circle cx="150.80" cy="478.22" r="2.6" fill="#1f77b4"/>
<circle cx="173.73" cy="478.22" r="2.6" fill="#1f77b4"/>
<circle cx="196.67" cy="478.22" r="2.6" fill="#1f77b4"/>
<circle cx="219.60" cy="478.22" r="2.6" fill="#1f77b4"/>
<circle cx="242.53" cy="478.22" r="2.6" fill="#1f77b4"/>
<circle cx="265.47" cy="478.22" r="2.6" fill="#1f77b4"/>
<circle cx="288.40" cy="478.22" r="2.6" fill="#1f77b4"/>
<circle cx="311.33" cy="478.22" r="2.6" fill="#1f77b4"/>
<circle cx="334.27" cy="478.22" r="2.6" fill="#1f77b4"/>
<circle cx="357.20" cy="478.22" r="2.6" fill="#1f77b4"/>
<circle cx="380.13" cy="478.22" r="2.6" fill="#1f77b4"/>
<circle cx="403.07" cy="478.22" r="2.6" fill="#1f77b4"/>
<circle cx="426.00" cy="478.22" r="2.6" fill="#1f77b4"/>
<circle cx="448.93" cy="478.22" r="2.6" fill="#1f77b4"/>
<circle cx="471.87" cy="478.22" r="2.6" fill="#1f77b4"/>
<circle cx="494.80" cy="478.22" r="2.6" fill="#1f77b4"/>
<circle cx="517.73" cy="478.22" r="2.6" fill="#1f77b4"/>
<circle cx="540.67" cy="478.22" r="2.6" fill="#1f77b4"/>
<circle cx="563.60" cy="478.22" r="2.6" fill="#1f77b4"/>
<circle cx="586.53" cy="478.22" r="2.6" fill="#1f77b4"/>
<circle cx="609.47" cy="478.22" r="2.6" fill="#1f77b4"/>
<circle cx="632.40" cy="478.22" r="2.6" fill="#1f77b4"/>
<circle cx="655.33" cy="478.22" r="2.6" fill="#1f77b4"/>
<circle cx="678.27" cy="478.22" r="2.6" fill="#1f77b4"/>
<circle cx="701.20" cy="478.22" r="2.6" fill="#1f77b4"/>
<circle cx="724.13" cy="478.22" r="2.6" fill="#1f77b4"/>
<circle cx="747.07" cy="478.22" r="2.6" fill="#1f77b4"/>
<circle cx="770.00" cy="478.22" r="2.6" fill="#1f77b4"/>
<path d="M82.00,482.91 L104.93,459.47 L127.87,452.44 L150.80,450.09 L173.73,450.09 L196.67,450.09 L219.60,450.09 L242.53,450.09 L265.47,450.09 L288.40,450.09 L311.33,450.09 L334.27,450.09 L357.20,450.09 L380.13,450.09 L403.07,450.09 L426.00,450.09 L448.93,450.09 L471.87,450.09 L494.80,450.09 L517.73,450.09 L540.67,450.09 L563.60,450.09 L586.53,450.09 L609.47,450.09 L632.40,450.09 L655.33,450.09 L678.27,450.09 L701.20,450.09 L724.13,450.09 L747.07,450.09 L770.00,450.09" fill="none" stroke="#d62728" stroke-width="2.2"/>
<circle cx="82.00" cy="482.91" r="2.6" fill="#d62728"/>
<circle cx="104.93" cy="459.47" r="2.6" fill="#d62728"/>
<circle cx="127.87" cy="452.44" r="2.6" fill="#d62728"/>
<circle cx="150.80" cy="450.09" r="2.6" fill="#d62728"/>
<circle cx="173.73" cy="450.09" r="2.6" fill="#d62728"/>
<circle cx="196.67" cy="450.09" r="2.6" fill="#d62728"/>
<circle cx="219.60" cy="450.09" r="2.6" fill="#d62728"/>
<circle cx="242.53" cy="450.09" r="2.6" fill="#d62728"/>
<circle cx="265.47" cy="450.09" r="2.6" fill="#d62728"/>
<circle cx="288.40" cy="450.09" r="2.6" fill="#d62728"/>
<circle cx="311.33" cy="450.09" r="2.6" fill="#d62728"/>
<circle cx="334.27" cy="450.09" r="2.6" fill="#d62728"/>
<circle cx="357.20" cy="450.09" r="2.6" fill="#d62728"/>
<circle cx="380.13" cy="450.09" r="2.6" fill="#d62728"/>
<circle cx="403.07" cy="450.09" r="2.6" fill="#d62728"/>
<circle cx="426.00" cy="450.09" r="2.6" fill="#d62728"/>
<circle cx="448.93" cy="450.09" r="2.6" fill="#d62728"/>
<circle cx="471.87" cy="450.09" r="2.6" fill="#d62728"/>
<circle cx="494.80" cy="450.09" r="2.6" fill="#d62728"/>
<circle cx="517.73" cy="450.09" r="2.6" fill="#d62728"/>
<circle cx="540.67" cy="450.09" r="2.6" fill="#d62728"/>
<circle cx="563.60" cy="450.09" r="2.6" fill="#d62728"/>
<circle cx="586.53" cy="450.09" r="2.6" fill="#d62728"/>
<circle cx="609.47" cy="450.09" r="2.6" fill="#d62728"/>
<circle cx="632.40" cy="450.09" r="2.6" fill="#d62728"/>
<circle cx="655.33" cy="450.09" r="2.6" fill="#d62728"/>
<circle cx="678.27" cy="450.09" r="2.6" fill="#d62728"/>
<circle cx="701.20" cy="450.09" r="2.6" fill="#d62728"/>
<circle cx="724.13" cy="450.09" r="2.6" fill="#d62728"/>
<circle cx="747.07" cy="450.09" r="2.6" fill="#d62728"/>
<circle cx="770.00" cy="450.09" r="2.6" fill="#d62728"/>
<path d="M82.00,475.88 L104.93,445.41 L127.87,433.69 L150.80,424.31 L173.73,414.94 L196.67,405.56 L219.60,398.53 L242.53,396.19 L265.47,393.84 L288.40,391.50 L311.33,389.16 L334.27,386.81 L357.20,386.81 L380.13,386.81 L403.07,386.81 L426.00,386.81 L448.93,386.81 L471.87,386.81 L494.80,386.81 L517.73,386.81 L540.67,386.81 L563.60,386.81 L586.53,386.81 L609.47,386.81 L632.40,386.81 L655.33,386.81 L678.27,386.81 L701.20,386.81 L724.13,386.81 L747.07,386.81 L770.00,386.81" fill="none" stroke="#2ca02c" stroke-width="2.2"/>
<circle cx="82.00" cy="475.88" r="2.6" fill="#2ca02c"/>
<circle cx="104.93" cy="445.41" r="2.6" fill="#2ca02c"/>
<circle cx="127.87" cy="433.69" r="2.6" fill="#2ca02c"/>
<circle cx="150.80" cy="424.31" r="2.6" fill="#2ca02c"/>
<circle cx="173.73" cy="414.94" r="2.6" fill="#2ca02c"/>
<circle cx="196.67" cy="405.56" r="2.6" fill="#2ca02c"/>
<circle cx="219.60" cy="398.53" r="2.6" fill="#2ca02c"/>
<circle cx="242.53" cy="396.19" r="2.6" fill="#2ca02c"/>
<circle cx="265.47" cy="393.84" r="2.6" fill="#2ca02c"/>
<circle cx="288.40" cy="391.50" r="2.6" fill="#2ca02c"/>
<circle cx="311.33" cy="389.16" r="2.6" fill="#2ca02c"/>
<circle cx="334.27" cy="386.81" r="2.6" fill="#2ca02c"/>
<circle cx="357.20" cy="386.81" r="2.6" fill="#2ca02c"/>
<circle cx="380.13" cy="386.81" r="2.6" fill="#2ca02c"/>
<circle cx="403.07" cy="386.81" r="2.6" fill="#2ca02c"/>
<circle cx="426.00" cy="386.81" r="2.6" fill="#2ca02c"/>
<circle cx="448.93" cy="386.81" r="2.6" fill="#2ca02c"/>
<circle cx="471.87" cy="386.81" r="2.6" fill="#2ca02c"/>
<circle cx="494.80" cy="386.81" r="2.6" fill="#2ca02c"/>
<circle cx="517.73" cy="386.81" r="2.6" fill="#2ca02c"/>
<circle cx="540.67" cy="386.81" r="2.6" fill="#2ca02c"/>
<circle cx="563.60" cy="386.81" r="2.6" fill="#2ca02c"/>
<circle cx="586.53" cy="386.81" r="2.6" fill="#2ca02c"/>
<circle cx="609.47" cy="386.81" r="2.6" fill="#2ca02c"/>
<circle cx="632.40" cy="386.81" r="2.6" fill="#2ca02c"/>
<circle cx="655.33" cy="386.81" r="2.6" fill="#2ca02c"/>
<circle cx="678.27" cy="386.81" r="2.6" fill="#2ca02c"/>
<circle cx="701.20" cy="386.81" r="2.6" fill="#2ca02c"/>
<circle cx="724.13" cy="386.81" r="2.6" fill="#2ca02c"/>
<circle cx="747.07" cy="386.81" r="2.6" fill="#2ca02c"/>
<circle cx="770.00" cy="386.81" r="2.6" fill="#2ca02c"/>
<path d="M82.00,468.84 L104.93,431.34 L127.87,417.28 L150.80,405.56 L173.73,396.19 L196.67,386.81 L219.60,377.44 L242.53,368.06 L265.47,358.69 L288.40,349.31 L311.33,339.94 L334.27,330.56 L357.20,323.53 L380.13,321.19 L403.07,318.84 L426.00,316.50 L448.93,314.16 L471.87,311.81 L494.80,309.47 L517.73,307.12 L540.67,304.78 L563.60,302.44 L586.53,300.09 L609.47,297.75 L632.40,297.75 L655.33,297.75 L678.27,297.75 L701.20,297.75 L724.13,297.75 L747.07,297.75 L770.00,297.75" fill="none" stroke="#9467bd" stroke-width="2.2"/>
<circle cx="82.00" cy="468.84" r="2.6" fill="#9467bd"/>
<circle cx="104.93" cy="431.34" r="2.6" fill="#9467bd"/>
<circle cx="127.87" cy="417.28" r="2.6" fill="#9467bd"/>
<circle cx="150.80" cy="405.56" r="2.6" fill="#9467bd"/>
<circle cx="173.73" cy="396.19" r="2.6" fill="#9467bd"/>
<circle cx="196.67" cy="386.81" r="2.6" fill="#9467bd"/>
<circle cx="219.60" cy="377.44" r="2.6" fill="#9467bd"/>
<circle cx="242.53" cy="368.06" r="2.6" fill="#9467bd"/>
<circle cx="265.47" cy="358.69" r="2.6" fill="#9467bd"/>
<circle cx="288.40" cy="349.31" r="2.6" fill="#9467bd"/>
<circle cx="311.33" cy="339.94" r="2.6" fill="#9467bd"/>
<circle cx="334.27" cy="330.56" r="2.6" fill="#9467bd"/>
<circle cx="357.20" cy="323.53" r="2.6" fill="#9467bd"/>
<circle cx="380.13" cy="321.19" r="2.6" fill="#9467bd"/>
<circle cx="403.07" cy="318.84" r="2.6" fill="#9467bd"/>
<circle cx="426.00" cy="316.50" r="2.6" fill="#9467bd"/>
<circle cx="448.93" cy="314.16" r="2.6" fill="#9467bd"/>
<circle cx="471.87" cy="311.81" r="2.6" fill="#9467bd"/>
<circle cx="494.80" cy="309.47" r="2.6" fill="#9467bd"/>
<circle cx="517.73" cy="307.12" r="2.6" fill="#9467bd"/>
<circle cx="540.67" cy="304.78" r="2.6" fill="#9467bd"/>
<circle cx="563.60" cy="302.44" r="2.6" fill="#9467bd"/>
<circle cx="586.53" cy="300.09" r="2.6" fill="#9467bd"/>
<circle cx="609.47" cy="297.75" r="2.6" fill="#9467bd"/>
<circle cx="632.40" cy="297.75" r="2.6" fill="#9467bd"/>
<circle cx="655.33" cy="297.75" r="2.6" fill="#9467bd"/>
<circle cx="678.27" cy="297.75" r="2.6" fill="#9467bd"/>
<circle cx="701.20" cy="297.75" r="2.6" fill="#9467bd"/>
<circle cx="724.13" cy="297.75" r="2.6" fill="#9467bd"/>
<circle cx="747.07" cy="297.75" r="2.6" fill="#9467bd"/>
<circle cx="770.00" cy="297.75" r="2.6" fill="#9467bd"/>
<path d="M82.00,461.81 L104.93,417.28 L127.87,400.88 L150.80,386.81 L173.73,375.09 L196.67,365.72 L219.60,356.34 L242.53,346.97 L265.47,337.59 L288.40,328.22 L311.33,318.84 L334.27,309.47 L357.20,300.09 L380.13,290.72 L403.07,281.34 L426.00,271.97 L448.93,262.59 L471.87,253.22 L494.80,243.84 L517.73,234.47 L540.67,225.09 L563.60,215.72 L586.53,206.34 L609.47,196.97 L632.40,187.59 L655.33,178.22 L678.27,168.84 L701.20,159.47 L724.13,150.09 L747.07,140.72 L770.00,131.34" fill="none" stroke="#ff7f0e" stroke-width="2.2"/>
<circle cx="82.00" cy="461.81" r="2.6" fill="#ff7f0e"/>
<circle cx="104.93" cy="417.28" r="2.6" fill="#ff7f0e"/>
<circle cx="127.87" cy="400.88" r="2.6" fill="#ff7f0e"/>
<circle cx="150.80" cy="386.81" r="2.6" fill="#ff7f0e"/>
<circle cx="173.73" cy="375.09" r="2.6" fill="#ff7f0e"/>
<circle cx="196.67" cy="365.72" r="2.6" fill="#ff7f0e"/>
<circle cx="219.60" cy="356.34" r="2.6" fill="#ff7f0e"/>
<circle cx="242.53" cy="346.97" r="2.6" fill="#ff7f0e"/>
<circle cx="265.47" cy="337.59" r="2.6" fill="#ff7f0e"/>
<circle cx="288.40" cy="328.22" r="2.6" fill="#ff7f0e"/>
<circle cx="311.33" cy="318.84" r="2.6" fill="#ff7f0e"/>
<circle cx="334.27" cy="309.47" r="2.6" fill="#ff7f0e"/>
<circle cx="357.20" cy="300.09" r="2.6" fill="#ff7f0e"/>
<circle cx="380.13" cy="290.72" r="2.6" fill="#ff7f0e"/>
<circle cx="403.07" cy="281.34" r="2.6" fill="#ff7f0e"/>
<circle cx="426.00" cy="271.97" r="2.6" fill="#ff7f0e"/>
<circle cx="448.93" cy="262.59" r="2.6" fill="#ff7f0e"/>
<circle cx="471.87" cy="253.22" r="2.6" fill="#ff7f0e"/>
<circle cx="494.80" cy="243.84" r="2.6" fill="#ff7f0e"/>
<circle cx="517.73" cy="234.47" r="2.6" fill="#ff7f0e"/>
<circle cx="540.67" cy="225.09" r="2.6" fill="#ff7f0e"/>
<circle cx="563.60" cy="215.72" r="2.6" fill="#ff7f0e"/>
<circle cx="586.53" cy="206.34" r="2.6" fill="#ff7f0e"/>
<circle cx="609.47" cy="196.97" r="2.6" fill="#ff7f0e"/>
<circle cx="632.40" cy="187.59" r="2.6" fill="#ff7f0e"/>
<circle cx="655.33" cy="178.22" r="2.6" fill="#ff7f0e"/>
<circle cx="678.27" cy="168.84" r="2.6" fill="#ff7f0e"/>
<circle cx="701.20" cy="159.47" r="2.6" fill="#ff7f0e"/>
<circle cx="724.13" cy="150.09" r="2.6" fill="#ff7f0e"/>
<circle cx="747.07" cy="140.72" r="2.6" fill="#ff7f0e"/>
<circle cx="770.00" cy="131.34" r="2.6" fill="#ff7f0e"/>
<path d="M82.00,454.78 L104.93,403.22 L127.87,384.47 L150.80,368.06 L173.73,354.00 L196.67,342.28 L219.60,332.91 L242.53,323.53 L265.47,314.16 L288.40,304.78 L311.33,295.41 L334.27,286.03 L357.20,276.66 L380.13,267.28 L403.07,257.91 L426.00,248.53 L448.93,239.16 L471.87,229.78 L494.80,220.41 L517.73,211.03 L540.67,201.66 L563.60,192.28 L586.53,182.91 L609.47,173.53 L632.40,164.16 L655.33,154.78 L678.27,145.41 L701.20,136.03 L724.13,126.66 L747.07,117.28 L770.00,107.91" fill="none" stroke="#17becf" stroke-width="2.2"/>
<circle cx="82.00" cy="454.78" r="2.6" fill="#17becf"/>
<circle cx="104.93" cy="403.22" r="2.6" fill="#17becf"/>
<circle cx="127.87" cy="384.47" r="2.6" fill="#17becf"/>
<circle cx="150.80" cy="368.06" r="2.6" fill="#17becf"/>
<circle cx="173.73" cy="354.00" r="2.6" fill="#17becf"/>
<circle cx="196.67" cy="342.28" r="2.6" fill="#17becf"/>
<circle cx="219.60" cy="332.91" r="2.6" fill="#17becf"/>
<circle cx="242.53" cy="323.53" r="2.6" fill="#17becf"/>
<circle cx="265.47" cy="314.16" r="2.6" fill="#17becf"/>
<circle cx="288.40" cy="304.78" r="2.6" fill="#17becf"/>
<circle cx="311.33" cy="295.41" r="2.6" fill="#17becf"/>
<circle cx="334.27" cy="286.03" r="2.6" fill="#17becf"/>
<circle cx="357.20" cy="276.66" r="2.6" fill="#17becf"/>
<circle cx="380.13" cy="267.28" r="2.6" fill="#17becf"/>
<circle cx="403.07" cy="257.91" r="2.6" fill="#17becf"/>
<circle cx="426.00" cy="248.53" r="2.6" fill="#17becf"/>
<circle cx="448.93" cy="239.16" r="2.6" fill="#17becf"/>
<circle cx="471.87" cy="229.78" r="2.6" fill="#17becf"/>
<circle cx="494.80" cy="220.41" r="2.6" fill="#17becf"/>
<circle cx="517.73" cy="211.03" r="2.6" fill="#17becf"/>
<circle cx="540.67" cy="201.66" r="2.6" fill="#17becf"/>
<circle cx="563.60" cy="192.28" r="2.6" fill="#17becf"/>
<circle cx="586.53" cy="182.91" r="2.6" fill="#17becf"/>
<circle cx="609.47" cy="173.53" r="2.6" fill="#17becf"/>
<circle cx="632.40" cy="164.16" r="2.6" fill="#17becf"/>
<circle cx="655.33" cy="154.78" r="2.6" fill="#17becf"/>
<circle cx="678.27" cy="145.41" r="2.6" fill="#17becf"/>
<circle cx="701.20" cy="136.03" r="2.6" fill="#17becf"/>
<circle cx="724.13" cy="126.66" r="2.6" fill="#17becf"/>
<circle cx="747.07" cy="117.28" r="2.6" fill="#17becf"/>
<circle cx="770.00" cy="107.91" r="2.6" fill="#17becf"/>
<path d="M82.00,447.75 L104.93,389.16 L127.87,368.06 L150.80,349.31 L173.73,332.91 L196.67,318.84 L219.60,307.12 L242.53,297.75 L265.47,288.38 L288.40,279.00 L311.33,269.62 L334.27,260.25 L357.20,250.88 L380.13,241.50 L403.07,232.12 L426.00,222.75 L448.93,213.38 L471.87,204.00 L494.80,194.62 L517.73,185.25 L540.67,175.88 L563.60,166.50 L586.53,157.12 L609.47,147.75 L632.40,138.38 L655.33,129.00 L678.27,119.62 L701.20,110.25 L724.13,100.88 L747.07,91.50 L770.00,82.12" fill="none" stroke="#8c564b" stroke-width="2.2"/>
<circle cx="82.00" cy="447.75" r="2.6" fill="#8c564b"/>
<circle cx="104.93" cy="389.16" r="2.6" fill="#8c564b"/>
<circle cx="127.87" cy="368.06" r="2.6" fill="#8c564b"/>
<circle cx="150.80" cy="349.31" r="2.6" fill="#8c564b"/>
<circle cx="173.73" cy="332.91" r="2.6" fill="#8c564b"/>
<circle cx="196.67" cy="318.84" r="2.6" fill="#8c564b"/>
<circle cx="219.60" cy="307.12" r="2.6" fill="#8c564b"/>
<circle cx="242.53" cy="297.75" r="2.6" fill="#8c564b"/>
<circle cx="265.47" cy="288.38" r="2.6" fill="#8c564b"/>
<circle cx="288.40" cy="279.00" r="2.6" fill="#8c564b"/>
<circle cx="311.33" cy="269.62" r="2.6" fill="#8c564b"/>
<circle cx="334.27" cy="260.25" r="2.6" fill="#8c564b"/>
<circle cx="357.20" cy="250.88" r="2.6" fill="#8c564b"/>
<circle cx="380.13" cy="241.50" r="2.6" fill="#8c564b"/>
<circle cx="403.07" cy="232.12" r="2.6" fill="#8c564b"/>
<circle cx="426.00" cy="222.75" r="2.6" fill="#8c564b"/>
<circle cx="448.93" cy="213.38" r="2.6" fill="#8c564b"/>
<circle cx="471.87" cy="204.00" r="2.6" fill="#8c564b"/>
<circle cx="494.80" cy="194.62" r="2.6" fill="#8c564b"/>
<circle cx="517.73" cy="185.25" r="2.6" fill="#8c564b"/>
<circle cx="540.67" cy="175.88" r="2.6" fill="#8c564b"/>
<circle cx="563.60" cy="166.50" r="2.6" fill="#8c564b"/>
<circle cx="586.53" cy="157.12" r="2.6" fill="#8c564b"/>
<circle cx="609.47" cy="147.75" r="2.6" fill="#8c564b"/>
<circle cx="632.40" cy="138.38" r="2.6" fill="#8c564b"/>
<circle cx="655.33" cy="129.00" r="2.6" fill="#8c564b"/>
<circle cx="678.27" cy="119.62" r="2.6" fill="#8c564b"/>
<circle cx="701.20" cy="110.25" r="2.6" fill="#8c564b"/>
<circle cx="724.13" cy="100.88" r="2.6" fill="#8c564b"/>
<circle cx="747.07" cy="91.50" r="2.6" fill="#8c564b"/>
<circle cx="770.00" cy="82.12" r="2.6" fill="#8c564b"/>
<path d="M82.00,440.72 L104.93,375.09 L127.87,351.66 L150.80,330.56 L173.73,311.81 L196.67,295.41 L219.60,281.34 L242.53,269.62 L265.47,260.25 L288.40,250.88 L311.33,241.50 L334.27,232.12 L357.20,222.75 L380.13,213.38 L403.07,204.00 L426.00,194.62 L448.93,185.25 L471.87,175.88 L494.80,166.50 L517.73,157.12 L540.67,147.75 L563.60,138.38 L586.53,129.00 L609.47,119.62 L632.40,110.25 L655.33,100.88 L678.27,91.50 L701.20,82.12 L724.13,72.75 L747.07,63.38 L770.00,54.00" fill="none" stroke="#e377c2" stroke-width="2.2"/>
<circle cx="82.00" cy="440.72" r="2.6" fill="#e377c2"/>
<circle cx="104.93" cy="375.09" r="2.6" fill="#e377c2"/>
<circle cx="127.87" cy="351.66" r="2.6" fill="#e377c2"/>
<circle cx="150.80" cy="330.56" r="2.6" fill="#e377c2"/>
<circle cx="173.73" cy="311.81" r="2.6" fill="#e377c2"/>
<circle cx="196.67" cy="295.41" r="2.6" fill="#e377c2"/>
<circle cx="219.60" cy="281.34" r="2.6" fill="#e377c2"/>
<circle cx="242.53" cy="269.62" r="2.6" fill="#e377c2"/>
<circle cx="265.47" cy="260.25" r="2.6" fill="#e377c2"/>
<circle cx="288.40" cy="250.88" r="2.6" fill="#e377c2"/>
<circle cx="311.33" cy="241.50" r="2.6" fill="#e377c2"/>
<circle cx="334.27" cy="232.12" r="2.6" fill="#e377c2"/>
<circle cx="357.20" cy="222.75" r="2.6" fill="#e377c2"/>
<circle cx="380.13" cy="213.38" r="2.6" fill="#e377c2"/>
<circle cx="403.07" cy="204.00" r="2.6" fill="#e377c2"/>
<circle cx="426.00" cy="194.62" r="2.6" fill="#e377c2"/>
<circle cx="448.93" cy="185.25" r="2.6" fill="#e377c2"/>
<circle cx="471.87" cy="175.88" r="2.6" fill="#e377c2"/>
<circle cx="494.80" cy="166.50" r="2.6" fill="#e377c2"/>
<circle cx="517.73" cy="157.12" r="2.6" fill="#e377c2"/>
<circle cx="540.67" cy="147.75" r="2.6" fill="#e377c2"/>
<circle cx="563.60" cy="138.38" r="2.6" fill="#e377c2"/>
<circle cx="586.53" cy="129.00" r="2.6" fill="#e377c2"/>
<circle cx="609.47" cy="119.62" r="2.6" fill="#e377c2"/>
<circle cx="632.40" cy="110.25" r="2.6" fill="#e377c2"/>
<circle cx="655.33" cy="100.88" r="2.6" fill="#e377c2"/>
<circle cx="678.27" cy="91.50" r="2.6" fill="#e377c2"/>
<circle cx="701.20" cy="82.12" r="2.6" fill="#e377c2"/>
<circle cx="724.13" cy="72.75" r="2.6" fill="#e377c2"/>
<circle cx="747.07" cy="63.38" r="2.6" fill="#e377c2"/>
<circle cx="770.00" cy="54.00" r="2.6" fill="#e377c2"/>
<text x="794" y="62" font-family="Arial, sans-serif" font-size="13" font-weight="700">k</text>
<line x1="794" y1="80" x2="820" y2="80" stroke="#1f77b4" stroke-width="2.2"/>
<text x="828" y="84" font-family="Arial, sans-serif" font-size="12">k=1</text>
<line x1="794" y1="102" x2="820" y2="102" stroke="#d62728" stroke-width="2.2"/>
<text x="828" y="106" font-family="Arial, sans-serif" font-size="12">k=2</text>
<line x1="794" y1="124" x2="820" y2="124" stroke="#2ca02c" stroke-width="2.2"/>
<text x="828" y="128" font-family="Arial, sans-serif" font-size="12">k=3</text>
<line x1="794" y1="146" x2="820" y2="146" stroke="#9467bd" stroke-width="2.2"/>
<text x="828" y="150" font-family="Arial, sans-serif" font-size="12">k=4</text>
<line x1="794" y1="168" x2="820" y2="168" stroke="#ff7f0e" stroke-width="2.2"/>
<text x="828" y="172" font-family="Arial, sans-serif" font-size="12">k=5</text>
<line x1="794" y1="190" x2="820" y2="190" stroke="#17becf" stroke-width="2.2"/>
<text x="828" y="194" font-family="Arial, sans-serif" font-size="12">k=6</text>
<line x1="794" y1="212" x2="820" y2="212" stroke="#8c564b" stroke-width="2.2"/>
<text x="828" y="216" font-family="Arial, sans-serif" font-size="12">k=7</text>
<line x1="794" y1="234" x2="820" y2="234" stroke="#e377c2" stroke-width="2.2"/>
<text x="828" y="238" font-family="Arial, sans-serif" font-size="12">k=8</text>
</svg>