<svg xmlns="http://www.w3.org/2000/svg" width="960" height="580" viewBox="0 0 960 580">
<rect width="100%" height="100%" fill="#ffffff"/>
<text x="82" y="28" font-family="Arial, sans-serif" font-size="18" font-weight="700">Chapter 7 derivative size: strongMemoFinalActiveKeyDag</text>
<text x="82" y="48" font-family="Arial, sans-serif" font-size="12" fill="#555">x: input length n, lines: Chapter 7 evil family parameter k, y: value</text>
<rect x="82" y="54" width="688" height="450" fill="#fbfbfb" stroke="#222" stroke-width="1"/>
<line x1="82.00" y1="54" x2="82.00" y2="504" stroke="#e5e5e5" stroke-width="1"/>
<text x="82.00" y="528" text-anchor="middle" font-family="Arial, sans-serif" font-size="11">0</text>
<line x1="254.00" y1="54" x2="254.00" y2="504" stroke="#e5e5e5" stroke-width="1"/>
<text x="254.00" y="528" text-anchor="middle" font-family="Arial, sans-serif" font-size="11">20</text>
<line x1="426.00" y1="54" x2="426.00" y2="504" stroke="#e5e5e5" stroke-width="1"/>
<text x="426.00" y="528" text-anchor="middle" font-family="Arial, sans-serif" font-size="11">40</text>
<line x1="598.00" y1="54" x2="598.00" y2="504" stroke="#e5e5e5" stroke-width="1"/>
<text x="598.00" y="528" text-anchor="middle" font-family="Arial, sans-serif" font-size="11">60</text>
<line x1="770.00" y1="54" x2="770.00" y2="504" stroke="#e5e5e5" stroke-width="1"/>
<text x="770.00" y="528" text-anchor="middle" font-family="Arial, sans-serif" font-size="11">80</text>
<line x1="82" y1="504.00" x2="770" y2="504.00" stroke="#e5e5e5" stroke-width="1"/>
<text x="72" y="508.00" text-anchor="end" font-family="Arial, sans-serif" font-size="11">0</text>
<line x1="82" y1="324.00" x2="770" y2="324.00" stroke="#e5e5e5" stroke-width="1"/>
<text x="72" y="328.00" text-anchor="end" font-family="Arial, sans-serif" font-size="11">10</text>
<line x1="82" y1="144.00" x2="770" y2="144.00" stroke="#e5e5e5" stroke-width="1"/>
<text x="72" y="148.00" text-anchor="end" font-family="Arial, sans-serif" font-size="11">20</text>
<line x1="82" y1="-36.00" x2="770" y2="-36.00" stroke="#e5e5e5" stroke-width="1"/>
<text x="72" y="-32.00" text-anchor="end" font-family="Arial, sans-serif" font-size="11">30</text>
<text x="426.00" y="560" text-anchor="middle" font-family="Arial, sans-serif" font-size="13">n</text>
<text x="18" y="279.00" transform="rotate(-90 18,279.00)" text-anchor="middle" font-family="Arial, sans-serif" font-size="13">size</text>
<path d="M82.00,504.00 L116.40,216.00 L150.80,216.00 L185.20,216.00 L219.60,216.00 L254.00,216.00 L288.40,216.00 L322.80,216.00 L357.20,216.00 L391.60,216.00 L426.00,216.00 L460.40,216.00 L494.80,216.00 L529.20,216.00 L563.60,216.00 L598.00,216.00 L632.40,216.00 L666.80,216.00 L701.20,216.00 L735.60,216.00 L770.00,216.00" fill="none" stroke="#1f77b4" stroke-width="2.2"/>
<circle cx="82.00" cy="504.00" r="2.6" fill="#1f77b4"/>
<circle cx="116.40" cy="216.00" r="2.6" fill="#1f77b4"/>
<circle cx="150.80" cy="216.00" r="2.6" fill="#1f77b4"/>
<circle cx="185.20" cy="216.00" r="2.6" fill="#1f77b4"/>
<circle cx="219.60" cy="216.00" r="2.6" fill="#1f77b4"/>
<circle cx="254.00" cy="216.00" r="2.6" fill="#1f77b4"/>
<circle cx="288.40" cy="216.00" r="2.6" fill="#1f77b4"/>
<circle cx="322.80" cy="216.00" r="2.6" fill="#1f77b4"/>
<circle cx="357.20" cy="216.00" r="2.6" fill="#1f77b4"/>
<circle cx="391.60" cy="216.00" r="2.6" fill="#1f77b4"/>
<circle cx="426.00" cy="216.00" r="2.6" fill="#1f77b4"/>
<circle cx="460.40" cy="216.00" r="2.6" fill="#1f77b4"/>
<circle cx="494.80" cy="216.00" r="2.6" fill="#1f77b4"/>
<circle cx="529.20" cy="216.00" r="2.6" fill="#1f77b4"/>
<circle cx="563.60" cy="216.00" r="2.6" fill="#1f77b4"/>
<circle cx="598.00" cy="216.00" r="2.6" fill="#1f77b4"/>
<circle cx="632.40" cy="216.00" r="2.6" fill="#1f77b4"/>
<circle cx="666.80" cy="216.00" r="2.6" fill="#1f77b4"/>
<circle cx="701.20" cy="216.00" r="2.6" fill="#1f77b4"/>
<circle cx="735.60" cy="216.00" r="2.6" fill="#1f77b4"/>
<circle cx="770.00" cy="216.00" r="2.6" fill="#1f77b4"/>
<path d="M82.00,504.00 L116.40,54.00 L150.80,54.00 L185.20,54.00 L219.60,54.00 L254.00,54.00 L288.40,54.00 L322.80,54.00 L357.20,54.00 L391.60,54.00 L426.00,54.00 L460.40,54.00 L494.80,54.00 L529.20,54.00 L563.60,54.00 L598.00,54.00 L632.40,54.00 L666.80,54.00 L701.20,54.00 L735.60,54.00 L770.00,54.00" fill="none" stroke="#d62728" stroke-width="2.2"/>
<circle cx="82.00" cy="504.00" r="2.6" fill="#d62728"/>
<circle cx="116.40" cy="54.00" r="2.6" fill="#d62728"/>
<circle cx="150.80" cy="54.00" r="2.6" fill="#d62728"/>
<circle cx="185.20" cy="54.00" r="2.6" fill="#d62728"/>
<circle cx="219.60" cy="54.00" r="2.6" fill="#d62728"/>
<circle cx="254.00" cy="54.00" r="2.6" fill="#d62728"/>
<circle cx="288.40" cy="54.00" r="2.6" fill="#d62728"/>
<circle cx="322.80" cy="54.00" r="2.6" fill="#d62728"/>
<circle cx="357.20" cy="54.00" r="2.6" fill="#d62728"/>
<circle cx="391.60" cy="54.00" r="2.6" fill="#d62728"/>
<circle cx="426.00" cy="54.00" r="2.6" fill="#d62728"/>
<circle cx="460.40" cy="54.00" r="2.6" fill="#d62728"/>
<circle cx="494.80" cy="54.00" r="2.6" fill="#d62728"/>
<circle cx="529.20" cy="54.00" r="2.6" fill="#d62728"/>
<circle cx="563.60" cy="54.00" r="2.6" fill="#d62728"/>
<circle cx="598.00" cy="54.00" r="2.6" fill="#d62728"/>
<circle cx="632.40" cy="54.00" r="2.6" fill="#d62728"/>
<circle cx="666.80" cy="54.00" r="2.6" fill="#d62728"/>
<circle cx="701.20" cy="54.00" r="2.6" fill="#d62728"/>
<circle cx="735.60" cy="54.00" r="2.6" fill="#d62728"/>
<circle cx="770.00" cy="54.00" r="2.6" fill="#d62728"/>
<text x="794" y="62" font-family="Arial, sans-serif" font-size="13" font-weight="700">k</text>
<line x1="794" y1="80" x2="820" y2="80" stroke="#1f77b4" stroke-width="2.2"/>
<text x="828" y="84" font-family="Arial, sans-serif" font-size="12">k=5</text>
<line x1="794" y1="102" x2="820" y2="102" stroke="#d62728" stroke-width="2.2"/>
<text x="828" y="106" font-family="Arial, sans-serif" font-size="12">k=8</text>
</svg>