<svg xmlns="http://www.w3.org/2000/svg" width="960" height="580" viewBox="0 0 960 580">
<rect width="100%" height="100%" fill="#ffffff"/>
<text x="82" y="28" font-family="Arial, sans-serif" font-size="18" font-weight="700">Chapter 7 derivative size: deferred strong tree</text>
<text x="82" y="48" font-family="Arial, sans-serif" font-size="12" fill="#555">x: input length n, lines: Chapter 7 evil family parameter k, y: value</text>
<rect x="82" y="54" width="688" height="450" fill="#fbfbfb" stroke="#222" stroke-width="1"/>
<line x1="82.00" y1="54" x2="82.00" y2="504" stroke="#e5e5e5" stroke-width="1"/>
<text x="82.00" y="528" text-anchor="middle" font-family="Arial, sans-serif" font-size="11">0</text>
<line x1="254.00" y1="54" x2="254.00" y2="504" stroke="#e5e5e5" stroke-width="1"/>
<text x="254.00" y="528" text-anchor="middle" font-family="Arial, sans-serif" font-size="11">20</text>
<line x1="426.00" y1="54" x2="426.00" y2="504" stroke="#e5e5e5" stroke-width="1"/>
<text x="426.00" y="528" text-anchor="middle" font-family="Arial, sans-serif" font-size="11">40</text>
<line x1="598.00" y1="54" x2="598.00" y2="504" stroke="#e5e5e5" stroke-width="1"/>
<text x="598.00" y="528" text-anchor="middle" font-family="Arial, sans-serif" font-size="11">60</text>
<line x1="770.00" y1="54" x2="770.00" y2="504" stroke="#e5e5e5" stroke-width="1"/>
<text x="770.00" y="528" text-anchor="middle" font-family="Arial, sans-serif" font-size="11">80</text>
<line x1="82" y1="504.00" x2="770" y2="504.00" stroke="#e5e5e5" stroke-width="1"/>
<text x="72" y="508.00" text-anchor="end" font-family="Arial, sans-serif" font-size="11">0</text>
<line x1="82" y1="365.33" x2="770" y2="365.33" stroke="#e5e5e5" stroke-width="1"/>
<text x="72" y="369.33" text-anchor="end" font-family="Arial, sans-serif" font-size="11">1000</text>
<line x1="82" y1="226.65" x2="770" y2="226.65" stroke="#e5e5e5" stroke-width="1"/>
<text x="72" y="230.65" text-anchor="end" font-family="Arial, sans-serif" font-size="11">2000</text>
<line x1="82" y1="87.98" x2="770" y2="87.98" stroke="#e5e5e5" stroke-width="1"/>
<text x="72" y="91.98" text-anchor="end" font-family="Arial, sans-serif" font-size="11">3000</text>
<text x="426.00" y="560" text-anchor="middle" font-family="Arial, sans-serif" font-size="13">n</text>
<text x="18" y="279.00" transform="rotate(-90 18,279.00)" text-anchor="middle" font-family="Arial, sans-serif" font-size="13">size</text>
<path d="M82.00,497.62 L116.40,438.27 L150.80,402.77 L185.20,397.08 L219.60,390.29 L254.00,382.66 L288.40,376.70 L322.80,378.08 L357.20,385.02 L391.60,378.36 L426.00,376.70 L460.40,371.01 L494.80,378.78 L529.20,372.67 L563.60,372.67 L598.00,371.29 L632.40,371.01 L666.80,372.67 L701.20,372.67 L735.60,372.67 L770.00,371.29" fill="none" stroke="#1f77b4" stroke-width="2.2"/>
<circle cx="82.00" cy="497.62" r="2.6" fill="#1f77b4"/>
<circle cx="116.40" cy="438.27" r="2.6" fill="#1f77b4"/>
<circle cx="150.80" cy="402.77" r="2.6" fill="#1f77b4"/>
<circle cx="185.20" cy="397.08" r="2.6" fill="#1f77b4"/>
<circle cx="219.60" cy="390.29" r="2.6" fill="#1f77b4"/>
<circle cx="254.00" cy="382.66" r="2.6" fill="#1f77b4"/>
<circle cx="288.40" cy="376.70" r="2.6" fill="#1f77b4"/>
<circle cx="322.80" cy="378.08" r="2.6" fill="#1f77b4"/>
<circle cx="357.20" cy="385.02" r="2.6" fill="#1f77b4"/>
<circle cx="391.60" cy="378.36" r="2.6" fill="#1f77b4"/>
<circle cx="426.00" cy="376.70" r="2.6" fill="#1f77b4"/>
<circle cx="460.40" cy="371.01" r="2.6" fill="#1f77b4"/>
<circle cx="494.80" cy="378.78" r="2.6" fill="#1f77b4"/>
<circle cx="529.20" cy="372.67" r="2.6" fill="#1f77b4"/>
<circle cx="563.60" cy="372.67" r="2.6" fill="#1f77b4"/>
<circle cx="598.00" cy="371.29" r="2.6" fill="#1f77b4"/>
<circle cx="632.40" cy="371.01" r="2.6" fill="#1f77b4"/>
<circle cx="666.80" cy="372.67" r="2.6" fill="#1f77b4"/>
<circle cx="701.20" cy="372.67" r="2.6" fill="#1f77b4"/>
<circle cx="735.60" cy="372.67" r="2.6" fill="#1f77b4"/>
<circle cx="770.00" cy="371.29" r="2.6" fill="#1f77b4"/>
<path d="M82.00,490.55 L116.40,342.58 L150.80,252.17 L185.20,189.35 L219.60,130.83 L254.00,137.76 L288.40,118.76 L322.80,137.62 L357.20,104.76 L391.60,110.58 L426.00,92.41 L460.40,97.41 L494.80,93.11 L529.20,83.12 L563.60,79.65 L598.00,71.33 L632.40,54.00 L666.80,58.44 L701.20,54.55 L735.60,56.50 L770.00,55.66" fill="none" stroke="#d62728" stroke-width="2.2"/>
<circle cx="82.00" cy="490.55" r="2.6" fill="#d62728"/>
<circle cx="116.40" cy="342.58" r="2.6" fill="#d62728"/>
<circle cx="150.80" cy="252.17" r="2.6" fill="#d62728"/>
<circle cx="185.20" cy="189.35" r="2.6" fill="#d62728"/>
<circle cx="219.60" cy="130.83" r="2.6" fill="#d62728"/>
<circle cx="254.00" cy="137.76" r="2.6" fill="#d62728"/>
<circle cx="288.40" cy="118.76" r="2.6" fill="#d62728"/>
<circle cx="322.80" cy="137.62" r="2.6" fill="#d62728"/>
<circle cx="357.20" cy="104.76" r="2.6" fill="#d62728"/>
<circle cx="391.60" cy="110.58" r="2.6" fill="#d62728"/>
<circle cx="426.00" cy="92.41" r="2.6" fill="#d62728"/>
<circle cx="460.40" cy="97.41" r="2.6" fill="#d62728"/>
<circle cx="494.80" cy="93.11" r="2.6" fill="#d62728"/>
<circle cx="529.20" cy="83.12" r="2.6" fill="#d62728"/>
<circle cx="563.60" cy="79.65" r="2.6" fill="#d62728"/>
<circle cx="598.00" cy="71.33" r="2.6" fill="#d62728"/>
<circle cx="632.40" cy="54.00" r="2.6" fill="#d62728"/>
<circle cx="666.80" cy="58.44" r="2.6" fill="#d62728"/>
<circle cx="701.20" cy="54.55" r="2.6" fill="#d62728"/>
<circle cx="735.60" cy="56.50" r="2.6" fill="#d62728"/>
<circle cx="770.00" cy="55.66" r="2.6" fill="#d62728"/>
<text x="794" y="62" font-family="Arial, sans-serif" font-size="13" font-weight="700">k</text>
<line x1="794" y1="80" x2="820" y2="80" stroke="#1f77b4" stroke-width="2.2"/>
<text x="828" y="84" font-family="Arial, sans-serif" font-size="12">k=5</text>
<line x1="794" y1="102" x2="820" y2="102" stroke="#d62728" stroke-width="2.2"/>
<text x="828" y="106" font-family="Arial, sans-serif" font-size="12">k=8</text>
</svg>