<svg xmlns="http://www.w3.org/2000/svg" width="960" height="580" viewBox="0 0 960 580">
<rect width="100%" height="100%" fill="#ffffff"/>
<text x="82" y="28" font-family="Arial, sans-serif" font-size="18" font-weight="700">Chapter 7 derivative size: strongMemoFinalActivePairBudget</text>
<text x="82" y="48" font-family="Arial, sans-serif" font-size="12" fill="#555">x: input length n, lines: Chapter 7 evil family parameter k, y: value</text>
<rect x="82" y="54" width="688" height="450" fill="#fbfbfb" stroke="#222" stroke-width="1"/>
<line x1="82.00" y1="54" x2="82.00" y2="504" stroke="#e5e5e5" stroke-width="1"/>
<text x="82.00" y="528" text-anchor="middle" font-family="Arial, sans-serif" font-size="11">0</text>
<line x1="254.00" y1="54" x2="254.00" y2="504" stroke="#e5e5e5" stroke-width="1"/>
<text x="254.00" y="528" text-anchor="middle" font-family="Arial, sans-serif" font-size="11">50</text>
<line x1="426.00" y1="54" x2="426.00" y2="504" stroke="#e5e5e5" stroke-width="1"/>
<text x="426.00" y="528" text-anchor="middle" font-family="Arial, sans-serif" font-size="11">100</text>
<line x1="598.00" y1="54" x2="598.00" y2="504" stroke="#e5e5e5" stroke-width="1"/>
<text x="598.00" y="528" text-anchor="middle" font-family="Arial, sans-serif" font-size="11">150</text>
<line x1="770.00" y1="54" x2="770.00" y2="504" stroke="#e5e5e5" stroke-width="1"/>
<text x="770.00" y="528" text-anchor="middle" font-family="Arial, sans-serif" font-size="11">200</text>
<line x1="82" y1="504.00" x2="770" y2="504.00" stroke="#e5e5e5" stroke-width="1"/>
<text x="72" y="508.00" text-anchor="end" font-family="Arial, sans-serif" font-size="11">0</text>
<line x1="82" y1="365.54" x2="770" y2="365.54" stroke="#e5e5e5" stroke-width="1"/>
<text x="72" y="369.54" text-anchor="end" font-family="Arial, sans-serif" font-size="11">20</text>
<line x1="82" y1="227.08" x2="770" y2="227.08" stroke="#e5e5e5" stroke-width="1"/>
<text x="72" y="231.08" text-anchor="end" font-family="Arial, sans-serif" font-size="11">40</text>
<line x1="82" y1="88.62" x2="770" y2="88.62" stroke="#e5e5e5" stroke-width="1"/>
<text x="72" y="92.62" text-anchor="end" font-family="Arial, sans-serif" font-size="11">60</text>
<text x="426.00" y="560" text-anchor="middle" font-family="Arial, sans-serif" font-size="13">n</text>
<text x="18" y="279.00" transform="rotate(-90 18,279.00)" text-anchor="middle" font-family="Arial, sans-serif" font-size="13">size</text>
<path d="M82.00,504.00 L95.76,386.31 L109.52,386.31 L123.28,386.31 L137.04,386.31 L150.80,386.31 L164.56,386.31 L178.32,386.31 L192.08,434.77 L205.84,386.31 L219.60,386.31 L233.36,386.31 L247.12,434.77 L260.88,386.31 L274.64,386.31 L288.40,386.31 L302.16,386.31 L315.92,386.31 L329.68,386.31 L343.44,386.31 L357.20,386.31 L370.96,386.31 L384.72,386.31 L398.48,434.77 L412.24,386.31 L426.00,386.31 L439.76,386.31 L453.52,434.77 L467.28,386.31 L481.04,386.31 L494.80,386.31 L508.56,386.31 L522.32,386.31 L536.08,386.31 L549.84,386.31 L563.60,386.31 L577.36,386.31 L591.12,386.31 L604.88,434.77 L618.64,386.31 L632.40,386.31 L646.16,386.31 L659.92,434.77 L673.68,386.31 L687.44,386.31 L701.20,386.31 L714.96,386.31 L728.72,386.31 L742.48,386.31 L756.24,386.31 L770.00,386.31" fill="none" stroke="#1f77b4" stroke-width="2.2"/>
<circle cx="82.00" cy="504.00" r="2.6" fill="#1f77b4"/>
<circle cx="95.76" cy="386.31" r="2.6" fill="#1f77b4"/>
<circle cx="109.52" cy="386.31" r="2.6" fill="#1f77b4"/>
<circle cx="123.28" cy="386.31" r="2.6" fill="#1f77b4"/>
<circle cx="137.04" cy="386.31" r="2.6" fill="#1f77b4"/>
<circle cx="150.80" cy="386.31" r="2.6" fill="#1f77b4"/>
<circle cx="164.56" cy="386.31" r="2.6" fill="#1f77b4"/>
<circle cx="178.32" cy="386.31" r="2.6" fill="#1f77b4"/>
<circle cx="192.08" cy="434.77" r="2.6" fill="#1f77b4"/>
<circle cx="205.84" cy="386.31" r="2.6" fill="#1f77b4"/>
<circle cx="219.60" cy="386.31" r="2.6" fill="#1f77b4"/>
<circle cx="233.36" cy="386.31" r="2.6" fill="#1f77b4"/>
<circle cx="247.12" cy="434.77" r="2.6" fill="#1f77b4"/>
<circle cx="260.88" cy="386.31" r="2.6" fill="#1f77b4"/>
<circle cx="274.64" cy="386.31" r="2.6" fill="#1f77b4"/>
<circle cx="288.40" cy="386.31" r="2.6" fill="#1f77b4"/>
<circle cx="302.16" cy="386.31" r="2.6" fill="#1f77b4"/>
<circle cx="315.92" cy="386.31" r="2.6" fill="#1f77b4"/>
<circle cx="329.68" cy="386.31" r="2.6" fill="#1f77b4"/>
<circle cx="343.44" cy="386.31" r="2.6" fill="#1f77b4"/>
<circle cx="357.20" cy="386.31" r="2.6" fill="#1f77b4"/>
<circle cx="370.96" cy="386.31" r="2.6" fill="#1f77b4"/>
<circle cx="384.72" cy="386.31" r="2.6" fill="#1f77b4"/>
<circle cx="398.48" cy="434.77" r="2.6" fill="#1f77b4"/>
<circle cx="412.24" cy="386.31" r="2.6" fill="#1f77b4"/>
<circle cx="426.00" cy="386.31" r="2.6" fill="#1f77b4"/>
<circle cx="439.76" cy="386.31" r="2.6" fill="#1f77b4"/>
<circle cx="453.52" cy="434.77" r="2.6" fill="#1f77b4"/>
<circle cx="467.28" cy="386.31" r="2.6" fill="#1f77b4"/>
<circle cx="481.04" cy="386.31" r="2.6" fill="#1f77b4"/>
<circle cx="494.80" cy="386.31" r="2.6" fill="#1f77b4"/>
<circle cx="508.56" cy="386.31" r="2.6" fill="#1f77b4"/>
<circle cx="522.32" cy="386.31" r="2.6" fill="#1f77b4"/>
<circle cx="536.08" cy="386.31" r="2.6" fill="#1f77b4"/>
<circle cx="549.84" cy="386.31" r="2.6" fill="#1f77b4"/>
<circle cx="563.60" cy="386.31" r="2.6" fill="#1f77b4"/>
<circle cx="577.36" cy="386.31" r="2.6" fill="#1f77b4"/>
<circle cx="591.12" cy="386.31" r="2.6" fill="#1f77b4"/>
<circle cx="604.88" cy="434.77" r="2.6" fill="#1f77b4"/>
<circle cx="618.64" cy="386.31" r="2.6" fill="#1f77b4"/>
<circle cx="632.40" cy="386.31" r="2.6" fill="#1f77b4"/>
<circle cx="646.16" cy="386.31" r="2.6" fill="#1f77b4"/>
<circle cx="659.92" cy="434.77" r="2.6" fill="#1f77b4"/>
<circle cx="673.68" cy="386.31" r="2.6" fill="#1f77b4"/>
<circle cx="687.44" cy="386.31" r="2.6" fill="#1f77b4"/>
<circle cx="701.20" cy="386.31" r="2.6" fill="#1f77b4"/>
<circle cx="714.96" cy="386.31" r="2.6" fill="#1f77b4"/>
<circle cx="728.72" cy="386.31" r="2.6" fill="#1f77b4"/>
<circle cx="742.48" cy="386.31" r="2.6" fill="#1f77b4"/>
<circle cx="756.24" cy="386.31" r="2.6" fill="#1f77b4"/>
<circle cx="770.00" cy="386.31" r="2.6" fill="#1f77b4"/>
<path d="M82.00,504.00 L95.76,386.31 L109.52,54.00 L123.28,54.00 L137.04,54.00 L150.80,54.00 L164.56,54.00 L178.32,157.85 L192.08,54.00 L205.84,54.00 L219.60,54.00 L233.36,54.00 L247.12,157.85 L260.88,54.00 L274.64,157.85 L288.40,54.00 L302.16,54.00 L315.92,54.00 L329.68,54.00 L343.44,54.00 L357.20,54.00 L370.96,157.85 L384.72,54.00 L398.48,54.00 L412.24,54.00 L426.00,54.00 L439.76,54.00 L453.52,54.00 L467.28,157.85 L481.04,54.00 L494.80,54.00 L508.56,157.85 L522.32,54.00 L536.08,157.85 L549.84,54.00 L563.60,157.85 L577.36,54.00 L591.12,54.00 L604.88,54.00 L618.64,54.00 L632.40,54.00 L646.16,54.00 L659.92,157.85 L673.68,157.85 L687.44,54.00 L701.20,54.00 L714.96,54.00 L728.72,54.00 L742.48,54.00 L756.24,157.85 L770.00,54.00" fill="none" stroke="#d62728" stroke-width="2.2"/>
<circle cx="82.00" cy="504.00" r="2.6" fill="#d62728"/>
<circle cx="95.76" cy="386.31" r="2.6" fill="#d62728"/>
<circle cx="109.52" cy="54.00" r="2.6" fill="#d62728"/>
<circle cx="123.28" cy="54.00" r="2.6" fill="#d62728"/>
<circle cx="137.04" cy="54.00" r="2.6" fill="#d62728"/>
<circle cx="150.80" cy="54.00" r="2.6" fill="#d62728"/>
<circle cx="164.56" cy="54.00" r="2.6" fill="#d62728"/>
<circle cx="178.32" cy="157.85" r="2.6" fill="#d62728"/>
<circle cx="192.08" cy="54.00" r="2.6" fill="#d62728"/>
<circle cx="205.84" cy="54.00" r="2.6" fill="#d62728"/>
<circle cx="219.60" cy="54.00" r="2.6" fill="#d62728"/>
<circle cx="233.36" cy="54.00" r="2.6" fill="#d62728"/>
<circle cx="247.12" cy="157.85" r="2.6" fill="#d62728"/>
<circle cx="260.88" cy="54.00" r="2.6" fill="#d62728"/>
<circle cx="274.64" cy="157.85" r="2.6" fill="#d62728"/>
<circle cx="288.40" cy="54.00" r="2.6" fill="#d62728"/>
<circle cx="302.16" cy="54.00" r="2.6" fill="#d62728"/>
<circle cx="315.92" cy="54.00" r="2.6" fill="#d62728"/>
<circle cx="329.68" cy="54.00" r="2.6" fill="#d62728"/>
<circle cx="343.44" cy="54.00" r="2.6" fill="#d62728"/>
<circle cx="357.20" cy="54.00" r="2.6" fill="#d62728"/>
<circle cx="370.96" cy="157.85" r="2.6" fill="#d62728"/>
<circle cx="384.72" cy="54.00" r="2.6" fill="#d62728"/>
<circle cx="398.48" cy="54.00" r="2.6" fill="#d62728"/>
<circle cx="412.24" cy="54.00" r="2.6" fill="#d62728"/>
<circle cx="426.00" cy="54.00" r="2.6" fill="#d62728"/>
<circle cx="439.76" cy="54.00" r="2.6" fill="#d62728"/>
<circle cx="453.52" cy="54.00" r="2.6" fill="#d62728"/>
<circle cx="467.28" cy="157.85" r="2.6" fill="#d62728"/>
<circle cx="481.04" cy="54.00" r="2.6" fill="#d62728"/>
<circle cx="494.80" cy="54.00" r="2.6" fill="#d62728"/>
<circle cx="508.56" cy="157.85" r="2.6" fill="#d62728"/>
<circle cx="522.32" cy="54.00" r="2.6" fill="#d62728"/>
<circle cx="536.08" cy="157.85" r="2.6" fill="#d62728"/>
<circle cx="549.84" cy="54.00" r="2.6" fill="#d62728"/>
<circle cx="563.60" cy="157.85" r="2.6" fill="#d62728"/>
<circle cx="577.36" cy="54.00" r="2.6" fill="#d62728"/>
<circle cx="591.12" cy="54.00" r="2.6" fill="#d62728"/>
<circle cx="604.88" cy="54.00" r="2.6" fill="#d62728"/>
<circle cx="618.64" cy="54.00" r="2.6" fill="#d62728"/>
<circle cx="632.40" cy="54.00" r="2.6" fill="#d62728"/>
<circle cx="646.16" cy="54.00" r="2.6" fill="#d62728"/>
<circle cx="659.92" cy="157.85" r="2.6" fill="#d62728"/>
<circle cx="673.68" cy="157.85" r="2.6" fill="#d62728"/>
<circle cx="687.44" cy="54.00" r="2.6" fill="#d62728"/>
<circle cx="701.20" cy="54.00" r="2.6" fill="#d62728"/>
<circle cx="714.96" cy="54.00" r="2.6" fill="#d62728"/>
<circle cx="728.72" cy="54.00" r="2.6" fill="#d62728"/>
<circle cx="742.48" cy="54.00" r="2.6" fill="#d62728"/>
<circle cx="756.24" cy="157.85" r="2.6" fill="#d62728"/>
<circle cx="770.00" cy="54.00" r="2.6" fill="#d62728"/>
<text x="794" y="62" font-family="Arial, sans-serif" font-size="13" font-weight="700">k</text>
<line x1="794" y1="80" x2="820" y2="80" stroke="#1f77b4" stroke-width="2.2"/>
<text x="828" y="84" font-family="Arial, sans-serif" font-size="12">k=5</text>
<line x1="794" y1="102" x2="820" y2="102" stroke="#d62728" stroke-width="2.2"/>
<text x="828" y="106" font-family="Arial, sans-serif" font-size="12">k=8</text>
</svg>