<svg xmlns="http://www.w3.org/2000/svg" width="960" height="580" viewBox="0 0 960 580">
<rect width="100%" height="100%" fill="#ffffff"/>
<text x="82" y="28" font-family="Arial, sans-serif" font-size="18" font-weight="700">Chapter 7 derivative size: deferred strong tree</text>
<text x="82" y="48" font-family="Arial, sans-serif" font-size="12" fill="#555">x: input length n, lines: Chapter 7 evil family parameter k, y: value</text>
<rect x="82" y="54" width="688" height="450" fill="#fbfbfb" stroke="#222" stroke-width="1"/>
<line x1="82.00" y1="54" x2="82.00" y2="504" stroke="#e5e5e5" stroke-width="1"/>
<text x="82.00" y="528" text-anchor="middle" font-family="Arial, sans-serif" font-size="11">0</text>
<line x1="254.00" y1="54" x2="254.00" y2="504" stroke="#e5e5e5" stroke-width="1"/>
<text x="254.00" y="528" text-anchor="middle" font-family="Arial, sans-serif" font-size="11">20</text>
<line x1="426.00" y1="54" x2="426.00" y2="504" stroke="#e5e5e5" stroke-width="1"/>
<text x="426.00" y="528" text-anchor="middle" font-family="Arial, sans-serif" font-size="11">40</text>
<line x1="598.00" y1="54" x2="598.00" y2="504" stroke="#e5e5e5" stroke-width="1"/>
<text x="598.00" y="528" text-anchor="middle" font-family="Arial, sans-serif" font-size="11">60</text>
<line x1="770.00" y1="54" x2="770.00" y2="504" stroke="#e5e5e5" stroke-width="1"/>
<text x="770.00" y="528" text-anchor="middle" font-family="Arial, sans-serif" font-size="11">80</text>
<line x1="82" y1="504.00" x2="770" y2="504.00" stroke="#e5e5e5" stroke-width="1"/>
<text x="72" y="508.00" text-anchor="end" font-family="Arial, sans-serif" font-size="11">0</text>
<line x1="82" y1="365.33" x2="770" y2="365.33" stroke="#e5e5e5" stroke-width="1"/>
<text x="72" y="369.33" text-anchor="end" font-family="Arial, sans-serif" font-size="11">1000</text>
<line x1="82" y1="226.65" x2="770" y2="226.65" stroke="#e5e5e5" stroke-width="1"/>
<text x="72" y="230.65" text-anchor="end" font-family="Arial, sans-serif" font-size="11">2000</text>
<line x1="82" y1="87.98" x2="770" y2="87.98" stroke="#e5e5e5" stroke-width="1"/>
<text x="72" y="91.98" text-anchor="end" font-family="Arial, sans-serif" font-size="11">3000</text>
<text x="426.00" y="560" text-anchor="middle" font-family="Arial, sans-serif" font-size="13">n</text>
<text x="18" y="279.00" transform="rotate(-90 18,279.00)" text-anchor="middle" font-family="Arial, sans-serif" font-size="13">size</text>
<path d="M82.00,497.62 L99.20,465.73 L116.40,438.27 L133.60,421.07 L150.80,402.77 L168.00,388.21 L185.20,397.08 L202.40,396.94 L219.60,390.29 L236.80,384.60 L254.00,382.66 L271.20,370.87 L288.40,376.70 L305.60,379.75 L322.80,378.08 L340.00,371.15 L357.20,385.02 L374.40,378.08 L391.60,378.36 L408.80,379.75 L426.00,376.70 L443.20,365.46 L460.40,371.01 L477.60,366.85 L494.80,378.78 L512.00,372.40 L529.20,372.67 L546.40,372.67 L563.60,372.67 L580.80,366.85 L598.00,371.29 L615.20,371.57 L632.40,371.01 L649.60,366.85 L666.80,372.67 L684.00,365.46 L701.20,372.67 L718.40,379.61 L735.60,372.67 L752.80,372.95 L770.00,371.29" fill="none" stroke="#1f77b4" stroke-width="2.2"/>
<circle cx="82.00" cy="497.62" r="2.6" fill="#1f77b4"/>
<circle cx="99.20" cy="465.73" r="2.6" fill="#1f77b4"/>
<circle cx="116.40" cy="438.27" r="2.6" fill="#1f77b4"/>
<circle cx="133.60" cy="421.07" r="2.6" fill="#1f77b4"/>
<circle cx="150.80" cy="402.77" r="2.6" fill="#1f77b4"/>
<circle cx="168.00" cy="388.21" r="2.6" fill="#1f77b4"/>
<circle cx="185.20" cy="397.08" r="2.6" fill="#1f77b4"/>
<circle cx="202.40" cy="396.94" r="2.6" fill="#1f77b4"/>
<circle cx="219.60" cy="390.29" r="2.6" fill="#1f77b4"/>
<circle cx="236.80" cy="384.60" r="2.6" fill="#1f77b4"/>
<circle cx="254.00" cy="382.66" r="2.6" fill="#1f77b4"/>
<circle cx="271.20" cy="370.87" r="2.6" fill="#1f77b4"/>
<circle cx="288.40" cy="376.70" r="2.6" fill="#1f77b4"/>
<circle cx="305.60" cy="379.75" r="2.6" fill="#1f77b4"/>
<circle cx="322.80" cy="378.08" r="2.6" fill="#1f77b4"/>
<circle cx="340.00" cy="371.15" r="2.6" fill="#1f77b4"/>
<circle cx="357.20" cy="385.02" r="2.6" fill="#1f77b4"/>
<circle cx="374.40" cy="378.08" r="2.6" fill="#1f77b4"/>
<circle cx="391.60" cy="378.36" r="2.6" fill="#1f77b4"/>
<circle cx="408.80" cy="379.75" r="2.6" fill="#1f77b4"/>
<circle cx="426.00" cy="376.70" r="2.6" fill="#1f77b4"/>
<circle cx="443.20" cy="365.46" r="2.6" fill="#1f77b4"/>
<circle cx="460.40" cy="371.01" r="2.6" fill="#1f77b4"/>
<circle cx="477.60" cy="366.85" r="2.6" fill="#1f77b4"/>
<circle cx="494.80" cy="378.78" r="2.6" fill="#1f77b4"/>
<circle cx="512.00" cy="372.40" r="2.6" fill="#1f77b4"/>
<circle cx="529.20" cy="372.67" r="2.6" fill="#1f77b4"/>
<circle cx="546.40" cy="372.67" r="2.6" fill="#1f77b4"/>
<circle cx="563.60" cy="372.67" r="2.6" fill="#1f77b4"/>
<circle cx="580.80" cy="366.85" r="2.6" fill="#1f77b4"/>
<circle cx="598.00" cy="371.29" r="2.6" fill="#1f77b4"/>
<circle cx="615.20" cy="371.57" r="2.6" fill="#1f77b4"/>
<circle cx="632.40" cy="371.01" r="2.6" fill="#1f77b4"/>
<circle cx="649.60" cy="366.85" r="2.6" fill="#1f77b4"/>
<circle cx="666.80" cy="372.67" r="2.6" fill="#1f77b4"/>
<circle cx="684.00" cy="365.46" r="2.6" fill="#1f77b4"/>
<circle cx="701.20" cy="372.67" r="2.6" fill="#1f77b4"/>
<circle cx="718.40" cy="379.61" r="2.6" fill="#1f77b4"/>
<circle cx="735.60" cy="372.67" r="2.6" fill="#1f77b4"/>
<circle cx="752.80" cy="372.95" r="2.6" fill="#1f77b4"/>
<circle cx="770.00" cy="371.29" r="2.6" fill="#1f77b4"/>
<path d="M82.00,490.55 L99.20,410.81 L116.40,342.58 L133.60,293.63 L150.80,252.17 L168.00,228.04 L185.20,189.35 L202.40,163.14 L219.60,130.83 L236.80,136.93 L254.00,137.76 L271.20,135.26 L288.40,118.76 L305.60,123.20 L322.80,137.62 L340.00,123.06 L357.20,104.76 L374.40,111.13 L391.60,110.58 L408.80,108.64 L426.00,92.41 L443.20,111.83 L460.40,97.41 L477.60,94.63 L494.80,93.11 L512.00,85.34 L529.20,83.12 L546.40,83.26 L563.60,79.65 L580.80,70.78 L598.00,71.33 L615.20,69.81 L632.40,54.00 L649.60,58.16 L666.80,58.44 L684.00,70.09 L701.20,54.55 L718.40,59.27 L735.60,56.50 L752.80,70.36 L770.00,55.66" fill="none" stroke="#d62728" stroke-width="2.2"/>
<circle cx="82.00" cy="490.55" r="2.6" fill="#d62728"/>
<circle cx="99.20" cy="410.81" r="2.6" fill="#d62728"/>
<circle cx="116.40" cy="342.58" r="2.6" fill="#d62728"/>
<circle cx="133.60" cy="293.63" r="2.6" fill="#d62728"/>
<circle cx="150.80" cy="252.17" r="2.6" fill="#d62728"/>
<circle cx="168.00" cy="228.04" r="2.6" fill="#d62728"/>
<circle cx="185.20" cy="189.35" r="2.6" fill="#d62728"/>
<circle cx="202.40" cy="163.14" r="2.6" fill="#d62728"/>
<circle cx="219.60" cy="130.83" r="2.6" fill="#d62728"/>
<circle cx="236.80" cy="136.93" r="2.6" fill="#d62728"/>
<circle cx="254.00" cy="137.76" r="2.6" fill="#d62728"/>
<circle cx="271.20" cy="135.26" r="2.6" fill="#d62728"/>
<circle cx="288.40" cy="118.76" r="2.6" fill="#d62728"/>
<circle cx="305.60" cy="123.20" r="2.6" fill="#d62728"/>
<circle cx="322.80" cy="137.62" r="2.6" fill="#d62728"/>
<circle cx="340.00" cy="123.06" r="2.6" fill="#d62728"/>
<circle cx="357.20" cy="104.76" r="2.6" fill="#d62728"/>
<circle cx="374.40" cy="111.13" r="2.6" fill="#d62728"/>
<circle cx="391.60" cy="110.58" r="2.6" fill="#d62728"/>
<circle cx="408.80" cy="108.64" r="2.6" fill="#d62728"/>
<circle cx="426.00" cy="92.41" r="2.6" fill="#d62728"/>
<circle cx="443.20" cy="111.83" r="2.6" fill="#d62728"/>
<circle cx="460.40" cy="97.41" r="2.6" fill="#d62728"/>
<circle cx="477.60" cy="94.63" r="2.6" fill="#d62728"/>
<circle cx="494.80" cy="93.11" r="2.6" fill="#d62728"/>
<circle cx="512.00" cy="85.34" r="2.6" fill="#d62728"/>
<circle cx="529.20" cy="83.12" r="2.6" fill="#d62728"/>
<circle cx="546.40" cy="83.26" r="2.6" fill="#d62728"/>
<circle cx="563.60" cy="79.65" r="2.6" fill="#d62728"/>
<circle cx="580.80" cy="70.78" r="2.6" fill="#d62728"/>
<circle cx="598.00" cy="71.33" r="2.6" fill="#d62728"/>
<circle cx="615.20" cy="69.81" r="2.6" fill="#d62728"/>
<circle cx="632.40" cy="54.00" r="2.6" fill="#d62728"/>
<circle cx="649.60" cy="58.16" r="2.6" fill="#d62728"/>
<circle cx="666.80" cy="58.44" r="2.6" fill="#d62728"/>
<circle cx="684.00" cy="70.09" r="2.6" fill="#d62728"/>
<circle cx="701.20" cy="54.55" r="2.6" fill="#d62728"/>
<circle cx="718.40" cy="59.27" r="2.6" fill="#d62728"/>
<circle cx="735.60" cy="56.50" r="2.6" fill="#d62728"/>
<circle cx="752.80" cy="70.36" r="2.6" fill="#d62728"/>
<circle cx="770.00" cy="55.66" r="2.6" fill="#d62728"/>
<text x="794" y="62" font-family="Arial, sans-serif" font-size="13" font-weight="700">k</text>
<line x1="794" y1="80" x2="820" y2="80" stroke="#1f77b4" stroke-width="2.2"/>
<text x="828" y="84" font-family="Arial, sans-serif" font-size="12">k=5</text>
<line x1="794" y1="102" x2="820" y2="102" stroke="#d62728" stroke-width="2.2"/>
<text x="828" y="106" font-family="Arial, sans-serif" font-size="12">k=8</text>
</svg>