<svg xmlns="http://www.w3.org/2000/svg" width="960" height="580" viewBox="0 0 960 580">
<rect width="100%" height="100%" fill="#ffffff"/>
<text x="82" y="28" font-family="Arial, sans-serif" font-size="18" font-weight="700">Chapter 7 derivative size: deferred strong tree</text>
<text x="82" y="48" font-family="Arial, sans-serif" font-size="12" fill="#555">x: input length n, lines: Chapter 7 evil family parameter k, y: value</text>
<rect x="82" y="54" width="688" height="450" fill="#fbfbfb" stroke="#222" stroke-width="1"/>
<line x1="82.00" y1="54" x2="82.00" y2="504" stroke="#e5e5e5" stroke-width="1"/>
<text x="82.00" y="528" text-anchor="middle" font-family="Arial, sans-serif" font-size="11">0</text>
<line x1="254.00" y1="54" x2="254.00" y2="504" stroke="#e5e5e5" stroke-width="1"/>
<text x="254.00" y="528" text-anchor="middle" font-family="Arial, sans-serif" font-size="11">50</text>
<line x1="426.00" y1="54" x2="426.00" y2="504" stroke="#e5e5e5" stroke-width="1"/>
<text x="426.00" y="528" text-anchor="middle" font-family="Arial, sans-serif" font-size="11">100</text>
<line x1="598.00" y1="54" x2="598.00" y2="504" stroke="#e5e5e5" stroke-width="1"/>
<text x="598.00" y="528" text-anchor="middle" font-family="Arial, sans-serif" font-size="11">150</text>
<line x1="770.00" y1="54" x2="770.00" y2="504" stroke="#e5e5e5" stroke-width="1"/>
<text x="770.00" y="528" text-anchor="middle" font-family="Arial, sans-serif" font-size="11">200</text>
<line x1="82" y1="504.00" x2="770" y2="504.00" stroke="#e5e5e5" stroke-width="1"/>
<text x="72" y="508.00" text-anchor="end" font-family="Arial, sans-serif" font-size="11">0</text>
<line x1="82" y1="271.71" x2="770" y2="271.71" stroke="#e5e5e5" stroke-width="1"/>
<text x="72" y="275.71" text-anchor="end" font-family="Arial, sans-serif" font-size="11">5000</text>
<line x1="82" y1="39.41" x2="770" y2="39.41" stroke="#e5e5e5" stroke-width="1"/>
<text x="72" y="43.41" text-anchor="end" font-family="Arial, sans-serif" font-size="11">10000</text>
<text x="426.00" y="560" text-anchor="middle" font-family="Arial, sans-serif" font-size="13">n</text>
<text x="18" y="279.00" transform="rotate(-90 18,279.00)" text-anchor="middle" font-family="Arial, sans-serif" font-size="13">size</text>
<path d="M82.00,501.86 L95.76,481.98 L109.52,470.09 L123.28,468.18 L137.04,465.90 L150.80,463.35 L164.56,461.35 L178.32,461.82 L192.08,464.14 L205.84,461.91 L219.60,461.35 L233.36,459.45 L247.12,462.05 L260.88,460.00 L274.64,460.00 L288.40,459.54 L302.16,459.45 L315.92,460.00 L329.68,460.00 L343.44,460.00 L357.20,459.54 L370.96,459.45 L384.72,460.00 L398.48,462.14 L412.24,460.00 L426.00,459.54 L439.76,459.45 L453.52,462.05 L467.28,460.00 L481.04,460.00 L494.80,459.54 L508.56,459.45 L522.32,460.00 L536.08,460.00 L549.84,460.00 L563.60,459.54 L577.36,459.45 L591.12,460.00 L604.88,462.14 L618.64,460.00 L632.40,459.54 L646.16,459.45 L659.92,462.05 L673.68,460.00 L687.44,460.00 L701.20,459.54 L714.96,459.45 L728.72,460.00 L742.48,460.00 L756.24,460.00 L770.00,459.54" fill="none" stroke="#1f77b4" stroke-width="2.2"/>
<circle cx="82.00" cy="501.86" r="2.6" fill="#1f77b4"/>
<circle cx="95.76" cy="481.98" r="2.6" fill="#1f77b4"/>
<circle cx="109.52" cy="470.09" r="2.6" fill="#1f77b4"/>
<circle cx="123.28" cy="468.18" r="2.6" fill="#1f77b4"/>
<circle cx="137.04" cy="465.90" r="2.6" fill="#1f77b4"/>
<circle cx="150.80" cy="463.35" r="2.6" fill="#1f77b4"/>
<circle cx="164.56" cy="461.35" r="2.6" fill="#1f77b4"/>
<circle cx="178.32" cy="461.82" r="2.6" fill="#1f77b4"/>
<circle cx="192.08" cy="464.14" r="2.6" fill="#1f77b4"/>
<circle cx="205.84" cy="461.91" r="2.6" fill="#1f77b4"/>
<circle cx="219.60" cy="461.35" r="2.6" fill="#1f77b4"/>
<circle cx="233.36" cy="459.45" r="2.6" fill="#1f77b4"/>
<circle cx="247.12" cy="462.05" r="2.6" fill="#1f77b4"/>
<circle cx="260.88" cy="460.00" r="2.6" fill="#1f77b4"/>
<circle cx="274.64" cy="460.00" r="2.6" fill="#1f77b4"/>
<circle cx="288.40" cy="459.54" r="2.6" fill="#1f77b4"/>
<circle cx="302.16" cy="459.45" r="2.6" fill="#1f77b4"/>
<circle cx="315.92" cy="460.00" r="2.6" fill="#1f77b4"/>
<circle cx="329.68" cy="460.00" r="2.6" fill="#1f77b4"/>
<circle cx="343.44" cy="460.00" r="2.6" fill="#1f77b4"/>
<circle cx="357.20" cy="459.54" r="2.6" fill="#1f77b4"/>
<circle cx="370.96" cy="459.45" r="2.6" fill="#1f77b4"/>
<circle cx="384.72" cy="460.00" r="2.6" fill="#1f77b4"/>
<circle cx="398.48" cy="462.14" r="2.6" fill="#1f77b4"/>
<circle cx="412.24" cy="460.00" r="2.6" fill="#1f77b4"/>
<circle cx="426.00" cy="459.54" r="2.6" fill="#1f77b4"/>
<circle cx="439.76" cy="459.45" r="2.6" fill="#1f77b4"/>
<circle cx="453.52" cy="462.05" r="2.6" fill="#1f77b4"/>
<circle cx="467.28" cy="460.00" r="2.6" fill="#1f77b4"/>
<circle cx="481.04" cy="460.00" r="2.6" fill="#1f77b4"/>
<circle cx="494.80" cy="459.54" r="2.6" fill="#1f77b4"/>
<circle cx="508.56" cy="459.45" r="2.6" fill="#1f77b4"/>
<circle cx="522.32" cy="460.00" r="2.6" fill="#1f77b4"/>
<circle cx="536.08" cy="460.00" r="2.6" fill="#1f77b4"/>
<circle cx="549.84" cy="460.00" r="2.6" fill="#1f77b4"/>
<circle cx="563.60" cy="459.54" r="2.6" fill="#1f77b4"/>
<circle cx="577.36" cy="459.45" r="2.6" fill="#1f77b4"/>
<circle cx="591.12" cy="460.00" r="2.6" fill="#1f77b4"/>
<circle cx="604.88" cy="462.14" r="2.6" fill="#1f77b4"/>
<circle cx="618.64" cy="460.00" r="2.6" fill="#1f77b4"/>
<circle cx="632.40" cy="459.54" r="2.6" fill="#1f77b4"/>
<circle cx="646.16" cy="459.45" r="2.6" fill="#1f77b4"/>
<circle cx="659.92" cy="462.05" r="2.6" fill="#1f77b4"/>
<circle cx="673.68" cy="460.00" r="2.6" fill="#1f77b4"/>
<circle cx="687.44" cy="460.00" r="2.6" fill="#1f77b4"/>
<circle cx="701.20" cy="459.54" r="2.6" fill="#1f77b4"/>
<circle cx="714.96" cy="459.45" r="2.6" fill="#1f77b4"/>
<circle cx="728.72" cy="460.00" r="2.6" fill="#1f77b4"/>
<circle cx="742.48" cy="460.00" r="2.6" fill="#1f77b4"/>
<circle cx="756.24" cy="460.00" r="2.6" fill="#1f77b4"/>
<circle cx="770.00" cy="459.54" r="2.6" fill="#1f77b4"/>
<path d="M82.00,499.49 L95.76,449.92 L109.52,419.63 L123.28,398.58 L137.04,378.98 L150.80,381.30 L164.56,374.94 L178.32,381.26 L192.08,370.25 L205.84,372.20 L219.60,366.11 L233.36,367.78 L247.12,366.34 L260.88,363.00 L274.64,361.84 L288.40,359.05 L302.16,353.24 L315.92,354.73 L329.68,353.43 L343.44,354.08 L357.20,353.80 L370.96,359.09 L384.72,353.15 L398.48,354.63 L412.24,353.33 L426.00,354.45 L439.76,353.71 L453.52,354.63 L467.28,357.42 L481.04,354.54 L494.80,349.29 L508.56,354.77 L522.32,349.39 L536.08,354.59 L549.84,348.92 L563.60,355.05 L577.36,349.20 L591.12,350.22 L604.88,349.29 L618.64,350.04 L632.40,349.29 L646.16,350.59 L659.92,353.47 L673.68,350.17 L687.44,345.06 L701.20,346.18 L714.96,344.88 L728.72,346.55 L742.48,344.97 L756.24,350.27 L770.00,345.34" fill="none" stroke="#d62728" stroke-width="2.2"/>
<circle cx="82.00" cy="499.49" r="2.6" fill="#d62728"/>
<circle cx="95.76" cy="449.92" r="2.6" fill="#d62728"/>
<circle cx="109.52" cy="419.63" r="2.6" fill="#d62728"/>
<circle cx="123.28" cy="398.58" r="2.6" fill="#d62728"/>
<circle cx="137.04" cy="378.98" r="2.6" fill="#d62728"/>
<circle cx="150.80" cy="381.30" r="2.6" fill="#d62728"/>
<circle cx="164.56" cy="374.94" r="2.6" fill="#d62728"/>
<circle cx="178.32" cy="381.26" r="2.6" fill="#d62728"/>
<circle cx="192.08" cy="370.25" r="2.6" fill="#d62728"/>
<circle cx="205.84" cy="372.20" r="2.6" fill="#d62728"/>
<circle cx="219.60" cy="366.11" r="2.6" fill="#d62728"/>
<circle cx="233.36" cy="367.78" r="2.6" fill="#d62728"/>
<circle cx="247.12" cy="366.34" r="2.6" fill="#d62728"/>
<circle cx="260.88" cy="363.00" r="2.6" fill="#d62728"/>
<circle cx="274.64" cy="361.84" r="2.6" fill="#d62728"/>
<circle cx="288.40" cy="359.05" r="2.6" fill="#d62728"/>
<circle cx="302.16" cy="353.24" r="2.6" fill="#d62728"/>
<circle cx="315.92" cy="354.73" r="2.6" fill="#d62728"/>
<circle cx="329.68" cy="353.43" r="2.6" fill="#d62728"/>
<circle cx="343.44" cy="354.08" r="2.6" fill="#d62728"/>
<circle cx="357.20" cy="353.80" r="2.6" fill="#d62728"/>
<circle cx="370.96" cy="359.09" r="2.6" fill="#d62728"/>
<circle cx="384.72" cy="353.15" r="2.6" fill="#d62728"/>
<circle cx="398.48" cy="354.63" r="2.6" fill="#d62728"/>
<circle cx="412.24" cy="353.33" r="2.6" fill="#d62728"/>
<circle cx="426.00" cy="354.45" r="2.6" fill="#d62728"/>
<circle cx="439.76" cy="353.71" r="2.6" fill="#d62728"/>
<circle cx="453.52" cy="354.63" r="2.6" fill="#d62728"/>
<circle cx="467.28" cy="357.42" r="2.6" fill="#d62728"/>
<circle cx="481.04" cy="354.54" r="2.6" fill="#d62728"/>
<circle cx="494.80" cy="349.29" r="2.6" fill="#d62728"/>
<circle cx="508.56" cy="354.77" r="2.6" fill="#d62728"/>
<circle cx="522.32" cy="349.39" r="2.6" fill="#d62728"/>
<circle cx="536.08" cy="354.59" r="2.6" fill="#d62728"/>
<circle cx="549.84" cy="348.92" r="2.6" fill="#d62728"/>
<circle cx="563.60" cy="355.05" r="2.6" fill="#d62728"/>
<circle cx="577.36" cy="349.20" r="2.6" fill="#d62728"/>
<circle cx="591.12" cy="350.22" r="2.6" fill="#d62728"/>
<circle cx="604.88" cy="349.29" r="2.6" fill="#d62728"/>
<circle cx="618.64" cy="350.04" r="2.6" fill="#d62728"/>
<circle cx="632.40" cy="349.29" r="2.6" fill="#d62728"/>
<circle cx="646.16" cy="350.59" r="2.6" fill="#d62728"/>
<circle cx="659.92" cy="353.47" r="2.6" fill="#d62728"/>
<circle cx="673.68" cy="350.17" r="2.6" fill="#d62728"/>
<circle cx="687.44" cy="345.06" r="2.6" fill="#d62728"/>
<circle cx="701.20" cy="346.18" r="2.6" fill="#d62728"/>
<circle cx="714.96" cy="344.88" r="2.6" fill="#d62728"/>
<circle cx="728.72" cy="346.55" r="2.6" fill="#d62728"/>
<circle cx="742.48" cy="344.97" r="2.6" fill="#d62728"/>
<circle cx="756.24" cy="350.27" r="2.6" fill="#d62728"/>
<circle cx="770.00" cy="345.34" r="2.6" fill="#d62728"/>
<path d="M82.00,497.45 L95.76,420.19 L109.52,370.01 L123.28,339.40 L137.04,311.71 L150.80,285.32 L164.56,286.90 L178.32,286.99 L192.08,280.16 L205.84,286.57 L219.60,271.75 L233.36,274.08 L247.12,273.56 L260.88,267.15 L274.64,267.80 L288.40,258.84 L302.16,261.62 L315.92,260.14 L329.68,261.11 L343.44,254.24 L357.20,252.43 L370.96,248.80 L384.72,247.18 L398.48,241.69 L412.24,241.32 L426.00,233.84 L439.76,235.70 L453.52,240.63 L467.28,235.79 L481.04,234.40 L494.80,234.12 L508.56,234.96 L522.32,241.37 L536.08,235.33 L549.84,235.24 L563.60,234.03 L577.36,241.55 L591.12,234.40 L604.88,241.74 L618.64,234.77 L632.40,234.03 L646.16,235.33 L659.92,241.55 L673.68,235.42 L687.44,234.77 L701.20,239.88 L714.96,235.33 L728.72,234.63 L742.48,229.34 L756.24,228.69 L770.00,228.03" fill="none" stroke="#2ca02c" stroke-width="2.2"/>
<circle cx="82.00" cy="497.45" r="2.6" fill="#2ca02c"/>
<circle cx="95.76" cy="420.19" r="2.6" fill="#2ca02c"/>
<circle cx="109.52" cy="370.01" r="2.6" fill="#2ca02c"/>
<circle cx="123.28" cy="339.40" r="2.6" fill="#2ca02c"/>
<circle cx="137.04" cy="311.71" r="2.6" fill="#2ca02c"/>
<circle cx="150.80" cy="285.32" r="2.6" fill="#2ca02c"/>
<circle cx="164.56" cy="286.90" r="2.6" fill="#2ca02c"/>
<circle cx="178.32" cy="286.99" r="2.6" fill="#2ca02c"/>
<circle cx="192.08" cy="280.16" r="2.6" fill="#2ca02c"/>
<circle cx="205.84" cy="286.57" r="2.6" fill="#2ca02c"/>
<circle cx="219.60" cy="271.75" r="2.6" fill="#2ca02c"/>
<circle cx="233.36" cy="274.08" r="2.6" fill="#2ca02c"/>
<circle cx="247.12" cy="273.56" r="2.6" fill="#2ca02c"/>
<circle cx="260.88" cy="267.15" r="2.6" fill="#2ca02c"/>
<circle cx="274.64" cy="267.80" r="2.6" fill="#2ca02c"/>
<circle cx="288.40" cy="258.84" r="2.6" fill="#2ca02c"/>
<circle cx="302.16" cy="261.62" r="2.6" fill="#2ca02c"/>
<circle cx="315.92" cy="260.14" r="2.6" fill="#2ca02c"/>
<circle cx="329.68" cy="261.11" r="2.6" fill="#2ca02c"/>
<circle cx="343.44" cy="254.24" r="2.6" fill="#2ca02c"/>
<circle cx="357.20" cy="252.43" r="2.6" fill="#2ca02c"/>
<circle cx="370.96" cy="248.80" r="2.6" fill="#2ca02c"/>
<circle cx="384.72" cy="247.18" r="2.6" fill="#2ca02c"/>
<circle cx="398.48" cy="241.69" r="2.6" fill="#2ca02c"/>
<circle cx="412.24" cy="241.32" r="2.6" fill="#2ca02c"/>
<circle cx="426.00" cy="233.84" r="2.6" fill="#2ca02c"/>
<circle cx="439.76" cy="235.70" r="2.6" fill="#2ca02c"/>
<circle cx="453.52" cy="240.63" r="2.6" fill="#2ca02c"/>
<circle cx="467.28" cy="235.79" r="2.6" fill="#2ca02c"/>
<circle cx="481.04" cy="234.40" r="2.6" fill="#2ca02c"/>
<circle cx="494.80" cy="234.12" r="2.6" fill="#2ca02c"/>
<circle cx="508.56" cy="234.96" r="2.6" fill="#2ca02c"/>
<circle cx="522.32" cy="241.37" r="2.6" fill="#2ca02c"/>
<circle cx="536.08" cy="235.33" r="2.6" fill="#2ca02c"/>
<circle cx="549.84" cy="235.24" r="2.6" fill="#2ca02c"/>
<circle cx="563.60" cy="234.03" r="2.6" fill="#2ca02c"/>
<circle cx="577.36" cy="241.55" r="2.6" fill="#2ca02c"/>
<circle cx="591.12" cy="234.40" r="2.6" fill="#2ca02c"/>
<circle cx="604.88" cy="241.74" r="2.6" fill="#2ca02c"/>
<circle cx="618.64" cy="234.77" r="2.6" fill="#2ca02c"/>
<circle cx="632.40" cy="234.03" r="2.6" fill="#2ca02c"/>
<circle cx="646.16" cy="235.33" r="2.6" fill="#2ca02c"/>
<circle cx="659.92" cy="241.55" r="2.6" fill="#2ca02c"/>
<circle cx="673.68" cy="235.42" r="2.6" fill="#2ca02c"/>
<circle cx="687.44" cy="234.77" r="2.6" fill="#2ca02c"/>
<circle cx="701.20" cy="239.88" r="2.6" fill="#2ca02c"/>
<circle cx="714.96" cy="235.33" r="2.6" fill="#2ca02c"/>
<circle cx="728.72" cy="234.63" r="2.6" fill="#2ca02c"/>
<circle cx="742.48" cy="229.34" r="2.6" fill="#2ca02c"/>
<circle cx="756.24" cy="228.69" r="2.6" fill="#2ca02c"/>
<circle cx="770.00" cy="228.03" r="2.6" fill="#2ca02c"/>
<path d="M82.00,495.03 L95.76,383.76 L109.52,308.50 L123.28,258.65 L137.04,215.30 L150.80,180.09 L164.56,142.27 L178.32,144.97 L192.08,145.06 L205.84,132.65 L219.60,136.19 L233.36,145.29 L247.12,124.25 L260.88,127.03 L274.64,127.50 L288.40,115.28 L302.16,118.44 L315.92,118.25 L329.68,105.94 L343.44,110.12 L357.20,109.10 L370.96,97.81 L384.72,110.35 L398.48,99.58 L412.24,88.66 L426.00,92.37 L439.76,91.26 L453.52,80.06 L467.28,83.32 L481.04,81.92 L494.80,80.30 L508.56,74.16 L522.32,73.14 L536.08,71.98 L549.84,64.64 L563.60,65.10 L577.36,54.28 L591.12,55.95 L604.88,56.32 L618.64,54.00 L632.40,56.79 L646.16,55.58 L659.92,54.84 L673.68,56.51 L687.44,63.94 L701.20,55.02 L714.96,55.77 L728.72,56.14 L742.48,54.74 L756.24,56.14 L770.00,56.32" fill="none" stroke="#9467bd" stroke-width="2.2"/>
<circle cx="82.00" cy="495.03" r="2.6" fill="#9467bd"/>
<circle cx="95.76" cy="383.76" r="2.6" fill="#9467bd"/>
<circle cx="109.52" cy="308.50" r="2.6" fill="#9467bd"/>
<circle cx="123.28" cy="258.65" r="2.6" fill="#9467bd"/>
<circle cx="137.04" cy="215.30" r="2.6" fill="#9467bd"/>
<circle cx="150.80" cy="180.09" r="2.6" fill="#9467bd"/>
<circle cx="164.56" cy="142.27" r="2.6" fill="#9467bd"/>
<circle cx="178.32" cy="144.97" r="2.6" fill="#9467bd"/>
<circle cx="192.08" cy="145.06" r="2.6" fill="#9467bd"/>
<circle cx="205.84" cy="132.65" r="2.6" fill="#9467bd"/>
<circle cx="219.60" cy="136.19" r="2.6" fill="#9467bd"/>
<circle cx="233.36" cy="145.29" r="2.6" fill="#9467bd"/>
<circle cx="247.12" cy="124.25" r="2.6" fill="#9467bd"/>
<circle cx="260.88" cy="127.03" r="2.6" fill="#9467bd"/>
<circle cx="274.64" cy="127.50" r="2.6" fill="#9467bd"/>
<circle cx="288.40" cy="115.28" r="2.6" fill="#9467bd"/>
<circle cx="302.16" cy="118.44" r="2.6" fill="#9467bd"/>
<circle cx="315.92" cy="118.25" r="2.6" fill="#9467bd"/>
<circle cx="329.68" cy="105.94" r="2.6" fill="#9467bd"/>
<circle cx="343.44" cy="110.12" r="2.6" fill="#9467bd"/>
<circle cx="357.20" cy="109.10" r="2.6" fill="#9467bd"/>
<circle cx="370.96" cy="97.81" r="2.6" fill="#9467bd"/>
<circle cx="384.72" cy="110.35" r="2.6" fill="#9467bd"/>
<circle cx="398.48" cy="99.58" r="2.6" fill="#9467bd"/>
<circle cx="412.24" cy="88.66" r="2.6" fill="#9467bd"/>
<circle cx="426.00" cy="92.37" r="2.6" fill="#9467bd"/>
<circle cx="439.76" cy="91.26" r="2.6" fill="#9467bd"/>
<circle cx="453.52" cy="80.06" r="2.6" fill="#9467bd"/>
<circle cx="467.28" cy="83.32" r="2.6" fill="#9467bd"/>
<circle cx="481.04" cy="81.92" r="2.6" fill="#9467bd"/>
<circle cx="494.80" cy="80.30" r="2.6" fill="#9467bd"/>
<circle cx="508.56" cy="74.16" r="2.6" fill="#9467bd"/>
<circle cx="522.32" cy="73.14" r="2.6" fill="#9467bd"/>
<circle cx="536.08" cy="71.98" r="2.6" fill="#9467bd"/>
<circle cx="549.84" cy="64.64" r="2.6" fill="#9467bd"/>
<circle cx="563.60" cy="65.10" r="2.6" fill="#9467bd"/>
<circle cx="577.36" cy="54.28" r="2.6" fill="#9467bd"/>
<circle cx="591.12" cy="55.95" r="2.6" fill="#9467bd"/>
<circle cx="604.88" cy="56.32" r="2.6" fill="#9467bd"/>
<circle cx="618.64" cy="54.00" r="2.6" fill="#9467bd"/>
<circle cx="632.40" cy="56.79" r="2.6" fill="#9467bd"/>
<circle cx="646.16" cy="55.58" r="2.6" fill="#9467bd"/>
<circle cx="659.92" cy="54.84" r="2.6" fill="#9467bd"/>
<circle cx="673.68" cy="56.51" r="2.6" fill="#9467bd"/>
<circle cx="687.44" cy="63.94" r="2.6" fill="#9467bd"/>
<circle cx="701.20" cy="55.02" r="2.6" fill="#9467bd"/>
<circle cx="714.96" cy="55.77" r="2.6" fill="#9467bd"/>
<circle cx="728.72" cy="56.14" r="2.6" fill="#9467bd"/>
<circle cx="742.48" cy="54.74" r="2.6" fill="#9467bd"/>
<circle cx="756.24" cy="56.14" r="2.6" fill="#9467bd"/>
<circle cx="770.00" cy="56.32" r="2.6" fill="#9467bd"/>
<text x="794" y="62" font-family="Arial, sans-serif" font-size="13" font-weight="700">k</text>
<line x1="794" y1="80" x2="820" y2="80" stroke="#1f77b4" stroke-width="2.2"/>
<text x="828" y="84" font-family="Arial, sans-serif" font-size="12">k=5</text>
<line x1="794" y1="102" x2="820" y2="102" stroke="#d62728" stroke-width="2.2"/>
<text x="828" y="106" font-family="Arial, sans-serif" font-size="12">k=8</text>
<line x1="794" y1="124" x2="820" y2="124" stroke="#2ca02c" stroke-width="2.2"/>
<text x="828" y="128" font-family="Arial, sans-serif" font-size="12">k=10</text>
<line x1="794" y1="146" x2="820" y2="146" stroke="#9467bd" stroke-width="2.2"/>
<text x="828" y="150" font-family="Arial, sans-serif" font-size="12">k=12</text>
</svg>