<svg xmlns="http://www.w3.org/2000/svg" width="960" height="580" viewBox="0 0 960 580">
<rect width="100%" height="100%" fill="#ffffff"/>
<text x="82" y="28" font-family="Arial, sans-serif" font-size="18" font-weight="700">Chapter 7 derivative size: strongMemoActiveRows</text>
<text x="82" y="48" font-family="Arial, sans-serif" font-size="12" fill="#555">x: input length n, lines: Chapter 7 evil family parameter k, y: value</text>
<rect x="82" y="54" width="688" height="450" fill="#fbfbfb" stroke="#222" stroke-width="1"/>
<line x1="82.00" y1="54" x2="82.00" y2="504" stroke="#e5e5e5" stroke-width="1"/>
<text x="82.00" y="528" text-anchor="middle" font-family="Arial, sans-serif" font-size="11">0</text>
<line x1="254.00" y1="54" x2="254.00" y2="504" stroke="#e5e5e5" stroke-width="1"/>
<text x="254.00" y="528" text-anchor="middle" font-family="Arial, sans-serif" font-size="11">20</text>
<line x1="426.00" y1="54" x2="426.00" y2="504" stroke="#e5e5e5" stroke-width="1"/>
<text x="426.00" y="528" text-anchor="middle" font-family="Arial, sans-serif" font-size="11">40</text>
<line x1="598.00" y1="54" x2="598.00" y2="504" stroke="#e5e5e5" stroke-width="1"/>
<text x="598.00" y="528" text-anchor="middle" font-family="Arial, sans-serif" font-size="11">60</text>
<line x1="770.00" y1="54" x2="770.00" y2="504" stroke="#e5e5e5" stroke-width="1"/>
<text x="770.00" y="528" text-anchor="middle" font-family="Arial, sans-serif" font-size="11">80</text>
<line x1="82" y1="504.00" x2="770" y2="504.00" stroke="#e5e5e5" stroke-width="1"/>
<text x="72" y="508.00" text-anchor="end" font-family="Arial, sans-serif" font-size="11">0</text>
<line x1="82" y1="376.88" x2="770" y2="376.88" stroke="#e5e5e5" stroke-width="1"/>
<text x="72" y="380.88" text-anchor="end" font-family="Arial, sans-serif" font-size="11">50</text>
<line x1="82" y1="249.76" x2="770" y2="249.76" stroke="#e5e5e5" stroke-width="1"/>
<text x="72" y="253.76" text-anchor="end" font-family="Arial, sans-serif" font-size="11">100</text>
<line x1="82" y1="122.64" x2="770" y2="122.64" stroke="#e5e5e5" stroke-width="1"/>
<text x="72" y="126.64" text-anchor="end" font-family="Arial, sans-serif" font-size="11">150</text>
<line x1="82" y1="-4.47" x2="770" y2="-4.47" stroke="#e5e5e5" stroke-width="1"/>
<text x="72" y="-0.47" text-anchor="end" font-family="Arial, sans-serif" font-size="11">200</text>
<text x="426.00" y="560" text-anchor="middle" font-family="Arial, sans-serif" font-size="13">n</text>
<text x="18" y="279.00" transform="rotate(-90 18,279.00)" text-anchor="middle" font-family="Arial, sans-serif" font-size="13">size</text>
<path d="M82.00,504.00 L99.20,496.37 L116.40,478.58 L133.60,458.24 L150.80,440.44 L168.00,435.36 L185.20,425.19 L202.40,420.10 L219.60,412.47 L236.80,404.85 L254.00,399.76 L271.20,389.59 L288.40,384.51 L305.60,379.42 L322.80,374.34 L340.00,369.25 L357.20,361.63 L374.40,356.54 L391.60,351.46 L408.80,346.37 L426.00,341.29 L443.20,336.20 L460.40,331.12 L477.60,326.03 L494.80,320.95 L512.00,315.86 L529.20,310.78 L546.40,305.69 L563.60,300.61 L580.80,295.53 L598.00,290.44 L615.20,287.90 L632.40,287.90 L649.60,287.90 L666.80,287.90 L684.00,287.90 L701.20,287.90 L718.40,287.90 L735.60,287.90 L752.80,287.90 L770.00,287.90" fill="none" stroke="#1f77b4" stroke-width="2.2"/>
<circle cx="82.00" cy="504.00" r="2.6" fill="#1f77b4"/>
<circle cx="99.20" cy="496.37" r="2.6" fill="#1f77b4"/>
<circle cx="116.40" cy="478.58" r="2.6" fill="#1f77b4"/>
<circle cx="133.60" cy="458.24" r="2.6" fill="#1f77b4"/>
<circle cx="150.80" cy="440.44" r="2.6" fill="#1f77b4"/>
<circle cx="168.00" cy="435.36" r="2.6" fill="#1f77b4"/>
<circle cx="185.20" cy="425.19" r="2.6" fill="#1f77b4"/>
<circle cx="202.40" cy="420.10" r="2.6" fill="#1f77b4"/>
<circle cx="219.60" cy="412.47" r="2.6" fill="#1f77b4"/>
<circle cx="236.80" cy="404.85" r="2.6" fill="#1f77b4"/>
<circle cx="254.00" cy="399.76" r="2.6" fill="#1f77b4"/>
<circle cx="271.20" cy="389.59" r="2.6" fill="#1f77b4"/>
<circle cx="288.40" cy="384.51" r="2.6" fill="#1f77b4"/>
<circle cx="305.60" cy="379.42" r="2.6" fill="#1f77b4"/>
<circle cx="322.80" cy="374.34" r="2.6" fill="#1f77b4"/>
<circle cx="340.00" cy="369.25" r="2.6" fill="#1f77b4"/>
<circle cx="357.20" cy="361.63" r="2.6" fill="#1f77b4"/>
<circle cx="374.40" cy="356.54" r="2.6" fill="#1f77b4"/>
<circle cx="391.60" cy="351.46" r="2.6" fill="#1f77b4"/>
<circle cx="408.80" cy="346.37" r="2.6" fill="#1f77b4"/>
<circle cx="426.00" cy="341.29" r="2.6" fill="#1f77b4"/>
<circle cx="443.20" cy="336.20" r="2.6" fill="#1f77b4"/>
<circle cx="460.40" cy="331.12" r="2.6" fill="#1f77b4"/>
<circle cx="477.60" cy="326.03" r="2.6" fill="#1f77b4"/>
<circle cx="494.80" cy="320.95" r="2.6" fill="#1f77b4"/>
<circle cx="512.00" cy="315.86" r="2.6" fill="#1f77b4"/>
<circle cx="529.20" cy="310.78" r="2.6" fill="#1f77b4"/>
<circle cx="546.40" cy="305.69" r="2.6" fill="#1f77b4"/>
<circle cx="563.60" cy="300.61" r="2.6" fill="#1f77b4"/>
<circle cx="580.80" cy="295.53" r="2.6" fill="#1f77b4"/>
<circle cx="598.00" cy="290.44" r="2.6" fill="#1f77b4"/>
<circle cx="615.20" cy="287.90" r="2.6" fill="#1f77b4"/>
<circle cx="632.40" cy="287.90" r="2.6" fill="#1f77b4"/>
<circle cx="649.60" cy="287.90" r="2.6" fill="#1f77b4"/>
<circle cx="666.80" cy="287.90" r="2.6" fill="#1f77b4"/>
<circle cx="684.00" cy="287.90" r="2.6" fill="#1f77b4"/>
<circle cx="701.20" cy="287.90" r="2.6" fill="#1f77b4"/>
<circle cx="718.40" cy="287.90" r="2.6" fill="#1f77b4"/>
<circle cx="735.60" cy="287.90" r="2.6" fill="#1f77b4"/>
<circle cx="752.80" cy="287.90" r="2.6" fill="#1f77b4"/>
<circle cx="770.00" cy="287.90" r="2.6" fill="#1f77b4"/>
<path d="M82.00,504.00 L99.20,496.37 L116.40,478.58 L133.60,455.69 L150.80,427.73 L168.00,402.31 L185.20,376.88 L202.40,359.08 L219.60,341.29 L236.80,331.12 L254.00,326.03 L271.20,313.32 L288.40,298.07 L305.60,287.90 L322.80,277.73 L340.00,265.02 L357.20,249.76 L374.40,239.59 L391.60,229.42 L408.80,219.25 L426.00,209.08 L443.20,198.92 L460.40,183.66 L477.60,170.95 L494.80,163.32 L512.00,158.24 L529.20,153.15 L546.40,148.07 L563.60,142.98 L580.80,132.81 L598.00,122.64 L615.20,109.93 L632.40,99.76 L649.60,94.68 L666.80,89.59 L684.00,84.51 L701.20,74.34 L718.40,69.25 L735.60,64.17 L752.80,59.08 L770.00,54.00" fill="none" stroke="#d62728" stroke-width="2.2"/>
<circle cx="82.00" cy="504.00" r="2.6" fill="#d62728"/>
<circle cx="99.20" cy="496.37" r="2.6" fill="#d62728"/>
<circle cx="116.40" cy="478.58" r="2.6" fill="#d62728"/>
<circle cx="133.60" cy="455.69" r="2.6" fill="#d62728"/>
<circle cx="150.80" cy="427.73" r="2.6" fill="#d62728"/>
<circle cx="168.00" cy="402.31" r="2.6" fill="#d62728"/>
<circle cx="185.20" cy="376.88" r="2.6" fill="#d62728"/>
<circle cx="202.40" cy="359.08" r="2.6" fill="#d62728"/>
<circle cx="219.60" cy="341.29" r="2.6" fill="#d62728"/>
<circle cx="236.80" cy="331.12" r="2.6" fill="#d62728"/>
<circle cx="254.00" cy="326.03" r="2.6" fill="#d62728"/>
<circle cx="271.20" cy="313.32" r="2.6" fill="#d62728"/>
<circle cx="288.40" cy="298.07" r="2.6" fill="#d62728"/>
<circle cx="305.60" cy="287.90" r="2.6" fill="#d62728"/>
<circle cx="322.80" cy="277.73" r="2.6" fill="#d62728"/>
<circle cx="340.00" cy="265.02" r="2.6" fill="#d62728"/>
<circle cx="357.20" cy="249.76" r="2.6" fill="#d62728"/>
<circle cx="374.40" cy="239.59" r="2.6" fill="#d62728"/>
<circle cx="391.60" cy="229.42" r="2.6" fill="#d62728"/>
<circle cx="408.80" cy="219.25" r="2.6" fill="#d62728"/>
<circle cx="426.00" cy="209.08" r="2.6" fill="#d62728"/>
<circle cx="443.20" cy="198.92" r="2.6" fill="#d62728"/>
<circle cx="460.40" cy="183.66" r="2.6" fill="#d62728"/>
<circle cx="477.60" cy="170.95" r="2.6" fill="#d62728"/>
<circle cx="494.80" cy="163.32" r="2.6" fill="#d62728"/>
<circle cx="512.00" cy="158.24" r="2.6" fill="#d62728"/>
<circle cx="529.20" cy="153.15" r="2.6" fill="#d62728"/>
<circle cx="546.40" cy="148.07" r="2.6" fill="#d62728"/>
<circle cx="563.60" cy="142.98" r="2.6" fill="#d62728"/>
<circle cx="580.80" cy="132.81" r="2.6" fill="#d62728"/>
<circle cx="598.00" cy="122.64" r="2.6" fill="#d62728"/>
<circle cx="615.20" cy="109.93" r="2.6" fill="#d62728"/>
<circle cx="632.40" cy="99.76" r="2.6" fill="#d62728"/>
<circle cx="649.60" cy="94.68" r="2.6" fill="#d62728"/>
<circle cx="666.80" cy="89.59" r="2.6" fill="#d62728"/>
<circle cx="684.00" cy="84.51" r="2.6" fill="#d62728"/>
<circle cx="701.20" cy="74.34" r="2.6" fill="#d62728"/>
<circle cx="718.40" cy="69.25" r="2.6" fill="#d62728"/>
<circle cx="735.60" cy="64.17" r="2.6" fill="#d62728"/>
<circle cx="752.80" cy="59.08" r="2.6" fill="#d62728"/>
<circle cx="770.00" cy="54.00" r="2.6" fill="#d62728"/>
<text x="794" y="62" font-family="Arial, sans-serif" font-size="13" font-weight="700">k</text>
<line x1="794" y1="80" x2="820" y2="80" stroke="#1f77b4" stroke-width="2.2"/>
<text x="828" y="84" font-family="Arial, sans-serif" font-size="12">k=5</text>
<line x1="794" y1="102" x2="820" y2="102" stroke="#d62728" stroke-width="2.2"/>
<text x="828" y="106" font-family="Arial, sans-serif" font-size="12">k=8</text>
</svg>